<svg id="hover" xmlns="http://www.w3.org/2000/svg" viewBox="0 0 500 500"><defs><style>.cls-1{fill:#2e5644;}.cls-2{fill:#409873;}.cls-3,.cls-5{fill:#52c18e;}.cls-4{fill:#de1651;}.cls-5{opacity:0;}</style></defs><path class="cls-1" d="M350.76,333.07q0-50.68.08-101.38L249.89,290,250,391.19Z"/><path class="cls-2" d="M249.89,290,149.15,231.7q0,50.63,0,101.25L250,391.19Z"/><path class="cls-3" d="M350.84,231.69Q300.41,202.59,250,173.47L149.15,231.7,249.89,290Z"/><path class="cls-2" d="M311.28,254.54,210.41,196.13l-17.54,10.31L293.74,264.7Z"/><path class="cls-4" d="M219.62,336.46v-2.19a2.68,2.68,0,0,0-1-1.85q-9.06-7.5-9.16-10.15c0-.82.58-1.51,4.15-1.37,3.19.12,8.29.88,15.51,4.18.71.41,1.28.17,1.28-.54v-6a2.64,2.64,0,0,0-1.29-2l-17.63-10.15-18.13-10.43c-.71-.41-1.28-.16-1.28.55l0,10.38a2.68,2.68,0,0,0,1.29,2h0c1.07,1,2.72,2.66,3,4.06.43,2.19-2.57,3.34-7.88,2.1-.7-.41-1.28-.17-1.28.54v2.19a2.69,2.69,0,0,0,1.28,2L218.34,337C219.05,337.41,219.62,337.17,219.62,336.46Z"/><path class="cls-4" d="M188.9,293.39l-3.85-2.21-14.58-8.4c-.47-.28-.85-.11-.85.36v.3a1.65,1.65,0,0,0,.41,1l0,0,0,.06,12.15,13.44.15.16v0h0a3.2,3.2,0,0,0,.51.4l6,3.45c.71.41,1.29.16,1.28-.55v-6A2.68,2.68,0,0,0,188.9,293.39Z"/><path class="cls-4" d="M320.36,317.32v-2.23c0-.63-.45-.9-1.05-.67q-9.23,3-9.32.43c0-.8.59-2.22,4.22-6.27a91,91,0,0,1,15.8-14,2.73,2.73,0,0,0,1.31-2.06l0-6.1c0-.72-.58-1-1.31-.54l-18,10.4L293.56,307a2.73,2.73,0,0,0-1.31,2.06l0,10.56c0,.72.58,1,1.31.54h0c1.1-.26,2.78-.49,3.06.62.43,1.73-2.62,6.42-8,11.4a2.71,2.71,0,0,0-1.3,2.06v2.23c0,.72.59,1,1.31.55l30.41-17.62A2.73,2.73,0,0,0,320.36,317.32Z"/><path class="cls-4" d="M289.07,309.58l-3.93,2.27-14.85,8.59a1.82,1.82,0,0,0-.87,1.38v.31a.44.44,0,0,0,.43.5h.06l12.38-.6h.17a1.38,1.38,0,0,0,.52-.19l6.1-3.53a2.71,2.71,0,0,0,1.3-2.06v-6.1C290.37,309.41,289.79,309.16,289.07,309.58Z"/><rect class="cls-5" x="238.34" y="108.81" width="48.99" height="63.19"/></svg>