<svg id="no_hover" xmlns="http://www.w3.org/2000/svg" xmlns:xlink="http://www.w3.org/1999/xlink" viewBox="0 0 500 500"><defs><style>.cls-1{fill:url(#New_Pattern);}.cls-10,.cls-11,.cls-2{fill:none;}.cls-3{fill:#de1651;}.cls-4{fill:#2e5644;}.cls-5{fill:#409873;}.cls-6{fill:#52c18e;}.cls-7{fill:#6cd3a0;}.cls-8{fill:#fff;}.cls-9{mask:url(#mask);}.cls-10{stroke:#fff;}.cls-10,.cls-11{stroke-linecap:round;stroke-miterlimit:10;stroke-width:3px;}.cls-11{stroke:#de1651;}</style><pattern id="New_Pattern" data-name="New Pattern" width="61.44" height="39.9" patternTransform="matrix(1.3, 0.75, 0, -1.3, -31.09, 359.2)" patternUnits="userSpaceOnUse" viewBox="0 0 61.44 39.9"><rect class="cls-2" width="61.44" height="39.9"/><path class="cls-3" d="M44,38.9l.59-2.21a1.33,1.33,0,0,0-.7-1.54q-8.53-4.74-7.93-7.4c.18-.81,1.08-1.7,5.2-2.68a45,45,0,0,1,17-.62,1.33,1.33,0,0,0,1.64-.95l1.61-6.06a1.34,1.34,0,0,0-1-1.64L42.62,11.06,24.29,6.19a1.34,1.34,0,0,0-1.64.95L19.86,17.63a1.34,1.34,0,0,0,.95,1.64h0c1,.65,2.46,1.84,2.4,3.17-.1,2.08-3.91,4.17-9.76,4.58a1.33,1.33,0,0,0-1.64.95l-.59,2.21a1.33,1.33,0,0,0,.95,1.64l30.18,8A1.34,1.34,0,0,0,44,38.9Z"/><path class="cls-3" d="M19.83,5,15.94,4,1.21,0A.9.9,0,0,0,.11.66L0,1a.9.9,0,0,0,.22.85h0l0,0,10.54,9.79.13.12h0a1.35,1.35,0,0,0,.48.24l6.06,1.61a1.33,1.33,0,0,0,1.64-1l1.62-6A1.34,1.34,0,0,0,19.83,5Z"/></pattern><mask id="mask" x="0" y="13.69" width="182.29" height="237.46" maskUnits="userSpaceOnUse"><polygon class="cls-1" points="182.28 166.98 120.45 131.28 120.45 215.45 182.28 251.15 182.28 166.98"/></mask></defs><path class="cls-4" d="M389.43,381.71l.09-140.13L250,322.22q0,69.91.08,139.83Z"/><path class="cls-5" d="M250,322.22,110.74,241.58v140l139.33,80.51Q250,392.14,250,322.22Z"/><path class="cls-5" d="M250,322.22q0-80.48,0-160.93L110.74,241.58Z"/><path class="cls-6" d="M389.52,241.58l60.61-77.12L310.74,84.12,250,161.29Q319.77,201.43,389.52,241.58Z"/><path class="cls-6" d="M168.78,320.78,250,322.22,110.74,241.58l-79,0Z"/><path class="cls-6" d="M110.74,241.58l-79-45.36,139.43-80.69L250,161.29Z"/><path class="cls-7" d="M389.52,241.58,250,322.22q0-80.48,0-160.93Q319.77,201.43,389.52,241.58Z"/><path class="cls-3" d="M208.14,386.39v-3a3.66,3.66,0,0,0-1.43-2.55q-12.51-10.37-12.65-14c0-1.12.8-2.07,5.73-1.89,4.41.17,11.47,1.23,21.44,5.79,1,.56,1.78.22,1.77-.76v-8.29a3.66,3.66,0,0,0-1.78-2.79l-24.37-14-25.06-14.42c-1-.56-1.77-.22-1.77.76l0,14.35a3.65,3.65,0,0,0,1.77,2.8l0,0c1.49,1.35,3.77,3.68,4.14,5.62.59,3-3.55,4.61-10.89,2.89-1-.56-1.77-.22-1.77.76v3a3.67,3.67,0,0,0,1.77,2.8l41.27,23.74C207.35,387.71,208.14,387.37,208.14,386.39Z"/><path class="cls-3" d="M165.68,326.86l-5.32-3.06-20.15-11.61c-.66-.38-1.18-.15-1.18.5v.42a2.23,2.23,0,0,0,.57,1.34l0,0,.07.08,16.8,18.59.21.22v0h0a3.31,3.31,0,0,0,.71.55l8.28,4.77c1,.57,1.77.23,1.77-.75v-8.29A3.7,3.7,0,0,0,165.68,326.86Z"/><path class="cls-3" d="M347.39,359.93v-3.07c0-.87-.62-1.24-1.45-.93q-12.75,4.17-12.89.59c0-1.1.82-3.06,5.84-8.67a126.56,126.56,0,0,1,21.84-19.33,3.69,3.69,0,0,0,1.8-2.85v-8.42c0-1-.81-1.34-1.81-.76l-24.83,14.38-25.52,14.79a3.75,3.75,0,0,0-1.81,2.85l0,14.59c0,1,.82,1.34,1.81.76l0,0c1.52-.37,3.84-.68,4.22.86.59,2.39-3.62,8.87-11.09,15.75a3.76,3.76,0,0,0-1.81,2.85v3.08c0,1,.81,1.34,1.81.76l42-24.35A3.77,3.77,0,0,0,347.39,359.93Z"/><path class="cls-3" d="M304.14,349.24l-5.42,3.14-20.53,11.88a2.44,2.44,0,0,0-1.2,1.9v.42c0,.44.23.69.58.69h.09l17.12-.83H295a2,2,0,0,0,.72-.27l8.43-4.88a3.73,3.73,0,0,0,1.81-2.85V350C306,349,305.14,348.67,304.14,349.24Z"/><path class="cls-6" d="M468.23,287.24l-78.71-45.66L250,322.22l74.64,47.7Z"/><path class="cls-6" d="M243.8,318.64,116.87,245.12,96.14,256.36,187.47,316l51,4.08Z"/><polygon class="cls-8" points="255.88 286.85 255.88 202.69 379.56 131.28 379.56 215.45 255.88 286.85"/><path class="cls-3" d="M336,210v-2.08c0-.59-.42-.84-1-.63q-8.61,2.82-8.7.4c0-.74.55-2.07,3.94-5.85A84.83,84.83,0,0,1,345,188.75a2.56,2.56,0,0,0,1.22-1.93l0-5.69c0-.67-.54-.9-1.22-.51l-16.76,9.71-17.24,10a2.54,2.54,0,0,0-1.22,1.92l0,9.85c0,.68.55.91,1.23.51h0c1-.24,2.6-.46,2.85.58.41,1.62-2.44,6-7.49,10.64a2.5,2.5,0,0,0-1.21,1.93v2.07c0,.68.55.91,1.22.52l28.39-16.45A2.5,2.5,0,0,0,336,210Z"/><path class="cls-3" d="M306.78,202.74l-3.66,2.11-13.86,8a1.7,1.7,0,0,0-.82,1.29v.28c0,.3.15.47.39.47h.06l11.56-.56h.15a1.3,1.3,0,0,0,.48-.18l5.7-3.29a2.56,2.56,0,0,0,1.22-1.93v-5.69C308,202.58,307.45,202.35,306.78,202.74Z"/><polygon class="cls-8" points="120.45 131.28 120.45 215.45 244.12 286.85 244.12 202.69 120.45 131.28"/><path class="cls-3" d="M203.6,243.17a.64.64,0,0,0-.56.32.65.65,0,0,0,.24.89l33,19.08a.65.65,0,1,0,.65-1.13l-33-19.08A.76.76,0,0,0,203.6,243.17Z"/><path class="cls-3" d="M203.6,226a.65.65,0,0,0-.56.33.64.64,0,0,0,.24.88l33,19.08a.65.65,0,1,0,.65-1.12l-33-19.08A.66.66,0,0,0,203.6,226Z"/><path class="cls-3" d="M203.6,208.8a.64.64,0,0,0-.56.32.65.65,0,0,0,.24.89l33,19.08a.66.66,0,0,0,.89-.24A.65.65,0,0,0,237,228l-33-19.07A.66.66,0,0,0,203.6,208.8Z"/><polygon class="cls-3" points="182.28 166.98 120.45 131.28 120.45 215.45 182.28 251.15 182.28 166.98"/><g class="cls-9"><polygon class="cls-8" points="182.28 166.98 120.45 131.28 120.45 215.45 182.28 251.15 182.28 166.98"/></g><polygon class="cls-3" points="196.88 221.18 196.88 224.32 194.16 224.32 191.45 221.18 191.45 218.05 194.16 218.05 196.88 221.18"/><polygon class="cls-3" points="196.88 239.31 196.88 242.44 194.16 242.44 191.45 239.31 191.45 236.17 194.16 236.17 196.88 239.31"/><polygon class="cls-3" points="196.88 204 196.88 207.13 194.16 207.13 191.45 204 191.45 200.86 194.16 200.86 196.88 204"/><path class="cls-8" d="M227.7,206.54l-15.15-8.75"/><path class="cls-3" d="M212.55,196.81a1,1,0,0,0-.85.49,1,1,0,0,0,.36,1.33l15.15,8.75a1,1,0,0,0,1.33-.36,1,1,0,0,0-.35-1.33L213,197A1,1,0,0,0,212.55,196.81Z"/><polygon class="cls-8" points="120.45 122.12 120.45 37.95 244.12 109.36 244.12 193.52 120.45 122.12"/><path class="cls-3" d="M120.45,122.12V38L244.12,193.52Z"/><path class="cls-3" d="M229.52,123.87v-1.25a1.48,1.48,0,0,0-.59-1.06q-5.17-4.29-5.24-5.81c0-.47.33-.86,2.38-.79a23.49,23.49,0,0,1,8.88,2.4c.4.23.73.09.73-.31v-3.44a1.52,1.52,0,0,0-.73-1.15l-10.1-5.81-10.38-6c-.4-.24-.73-.1-.73.31v5.94a1.51,1.51,0,0,0,.74,1.16h0a5.49,5.49,0,0,1,1.72,2.33c.24,1.25-1.48,1.91-4.52,1.2-.4-.24-.73-.1-.73.31v1.25a1.51,1.51,0,0,0,.74,1.16l17.09,9.84C229.19,124.42,229.52,124.28,229.52,123.87Z"/><path class="cls-3" d="M211.93,99.22,209.72,98l-8.34-4.81c-.27-.16-.49-.06-.49.21v.17a.9.9,0,0,0,.24.56h0a.07.07,0,0,1,0,0l7,7.7.09.09h0a1.05,1.05,0,0,0,.3.22l3.43,2c.4.23.73.09.73-.31v-3.43A1.52,1.52,0,0,0,211.93,99.22Z"/><path class="cls-10" d="M132.71,106.21l50.49,29.15"/><path class="cls-10" d="M132.71,115.59l50.49,29.16"/><polygon class="cls-8" points="255.88 193.52 255.88 109.36 379.56 37.95 379.56 122.12 255.88 193.52"/><path class="cls-3" d="M379.56,38,255.88,109.36l123.68,12.76Z"/><path class="cls-11" d="M265.54,168.79,316,139.63"/><path class="cls-11" d="M265.54,159.4,316,130.25"/><path class="cls-11" d="M265.54,178.18,316,149"/><path class="cls-10" d="M319.4,91.84l50.5-29.15"/><path class="cls-10" d="M319.4,82.46,369.9,53.3"/><path class="cls-10" d="M319.4,101.23l50.5-29.15"/><path class="cls-10" d="M348.75,93.86,369.9,81.65"/></svg>