<svg id="no_hover" xmlns="http://www.w3.org/2000/svg" xmlns:xlink="http://www.w3.org/1999/xlink" viewBox="0 0 500 500"><defs><style>.cls-1{fill:url(#New_Pattern);}.cls-2{fill:none;}.cls-3{fill:#de1651;}.cls-4{fill:#2e5644;}.cls-5{fill:#409873;}.cls-6{fill:#52c18e;}.cls-7{fill:#6cd3a0;}.cls-8{fill:#234938;}.cls-9{fill:#12261d;}.cls-10{fill:#161616;}.cls-11{fill:#282828;}.cls-12{fill:#474747;}.cls-13{fill:#3e8566;}.cls-14{fill:#af0e40;}.cls-15{fill:#fff;}.cls-16{mask:url(#mask);}</style><pattern id="New_Pattern" data-name="New Pattern" width="61.44" height="39.9" patternTransform="matrix(1.3, 0.75, 0, -1.3, -31.12, 389.28)" patternUnits="userSpaceOnUse" viewBox="0 0 61.44 39.9"><rect class="cls-2" width="61.44" height="39.9"/><path class="cls-3" d="M44,38.9l.59-2.21a1.33,1.33,0,0,0-.7-1.54q-8.53-4.74-7.93-7.4c.18-.81,1.08-1.7,5.2-2.68a45,45,0,0,1,17-.62,1.33,1.33,0,0,0,1.64-.95l1.61-6.06a1.34,1.34,0,0,0-1-1.64L42.62,11.06,24.29,6.19a1.34,1.34,0,0,0-1.64.95L19.86,17.63a1.34,1.34,0,0,0,.95,1.64h0c1,.65,2.46,1.84,2.4,3.17-.1,2.08-3.91,4.17-9.76,4.58a1.33,1.33,0,0,0-1.64.95l-.59,2.21a1.33,1.33,0,0,0,.95,1.64l30.18,8A1.34,1.34,0,0,0,44,38.9Z"/><path class="cls-3" d="M19.83,5,15.94,4,1.21,0A.9.9,0,0,0,.11.66L0,1a.9.9,0,0,0,.22.85h0l0,0,10.54,9.79.13.12h0a1.35,1.35,0,0,0,.48.24l6.06,1.61a1.33,1.33,0,0,0,1.64-1l1.62-6A1.34,1.34,0,0,0,19.83,5Z"/></pattern><mask id="mask" x="0" y="13.69" width="182.26" height="267.55" maskUnits="userSpaceOnUse"><polygon class="cls-1" points="182.26 197.07 120.42 161.37 120.42 245.54 182.26 281.24 182.26 197.07"/></mask></defs><path class="cls-4" d="M389.41,389.41q0-70.07.1-140.14L250,329.91q0,69.91.08,139.83Z"/><path class="cls-5" d="M250,329.91,110.72,249.28q0,70,0,140l139.32,80.5Q250,399.83,250,329.91Z"/><path class="cls-5" d="M250,329.91q0-80.46,0-160.92L110.72,249.28Z"/><path class="cls-6" d="M168.76,328.47,250,329.91,110.72,249.28l-79,0Z"/><path class="cls-6" d="M110.72,249.28l-79-45.36,139.42-80.7L250,169Z"/><path class="cls-7" d="M389.51,249.27,250,329.91q0-80.46,0-160.92Z"/><path class="cls-3" d="M208.13,394.09v-3a3.63,3.63,0,0,0-1.42-2.56q-12.52-10.35-12.66-14c0-1.12.81-2.08,5.73-1.89,4.42.16,11.47,1.23,21.45,5.79,1,.56,1.77.22,1.77-.76l0-8.29a3.7,3.7,0,0,0-1.78-2.8l-24.37-14-25.06-14.42c-1-.56-1.77-.22-1.77.76l0,14.35a3.68,3.68,0,0,0,1.78,2.8h0c1.49,1.36,3.77,3.68,4.15,5.63.58,3-3.56,4.61-10.89,2.89-1-.56-1.78-.23-1.77.76v3a3.7,3.7,0,0,0,1.78,2.8l41.27,23.74C207.34,395.41,208.13,395.07,208.13,394.09Z"/><path class="cls-3" d="M165.67,334.56l-5.33-3.06-20.15-11.61c-.65-.38-1.18-.15-1.18.5v.42a2.21,2.21,0,0,0,.58,1.34v0c0,.05.07.08.08.08l16.8,18.58a2.2,2.2,0,0,0,.2.23l0,0h0a3.69,3.69,0,0,0,.7.55l8.28,4.77c1,.56,1.77.23,1.77-.76v-8.28A3.68,3.68,0,0,0,165.67,334.56Z"/><path class="cls-3" d="M347.37,367.63v-3.07c0-.88-.63-1.24-1.45-.93q-12.75,4.17-12.89.59c0-1.1.81-3.06,5.83-8.67a126.7,126.7,0,0,1,21.85-19.33,3.76,3.76,0,0,0,1.8-2.85l0-8.42c0-1-.81-1.34-1.81-.76l-24.82,14.38-25.53,14.79a3.72,3.72,0,0,0-1.8,2.85l0,14.59c0,1,.81,1.33,1.81.76l0,0c1.52-.37,3.84-.68,4.22.85.6,2.4-3.62,8.88-11.09,15.76a3.75,3.75,0,0,0-1.8,2.85v3.08c0,1,.82,1.33,1.81.76l42-24.35A3.75,3.75,0,0,0,347.37,367.63Z"/><path class="cls-3" d="M304.12,356.94l-5.42,3.14L278.17,372a2.49,2.49,0,0,0-1.2,1.9v.42a.6.6,0,0,0,.59.69h.09l17.11-.83H295a1.9,1.9,0,0,0,.71-.27l8.44-4.88a3.74,3.74,0,0,0,1.8-2.85V357.7C305.93,356.7,305.12,356.36,304.12,356.94Z"/><path class="cls-6" d="M468.21,294.94l-78.7-45.67L250,329.91l74.64,47.71Z"/><path class="cls-6" d="M243.79,326.33,116.86,252.81,96.13,264.06l91.32,59.6,51,4.08Z"/><path class="cls-2" d="M208.36,47.78a.64.64,0,0,1,0-.07s0,0,0,0Z"/><path class="cls-2" d="M208.36,47.85V48s0,.06,0,.1A1.55,1.55,0,0,1,208.36,47.85Z"/><path class="cls-2" d="M207.29,68.45a1.38,1.38,0,0,1-.28,0A.53.53,0,0,0,207.29,68.45Z"/><path class="cls-2" d="M208.42,47.54a.05.05,0,0,0,0,0h0A0,0,0,0,1,208.42,47.54Z"/><path class="cls-2" d="M207,68.49h0Z"/><path class="cls-6" d="M317.81,104.82a28.65,28.65,0,0,1-.41,8.1c-.29,5-.74,11.52-1.4,19.91v50.94l-2,4.87a28.63,28.63,0,0,1-15.64,8.19h0l91.14,52.44,60.6-77.11L314.58,94a19.73,19.73,0,0,1,3.23,10.78Z"/><path class="cls-8" d="M255.32,188.44a130.79,130.79,0,0,1-1,16.45c3.72,13.32,6.1,31.77,6.1,50.91,0,29.15-5.52,50.32-12.91,52.07l.08,0c4.46,1.32,9.52-3.68,13.15-7.27,13.18-13,13.68-31.79,13.68-52.19,0-19.14-2.38-37.59-6.1-50.92.17-3,.35-6,.53-9l-6.57-3.29-7.13-3.57C255.27,183.93,255.32,186.18,255.32,188.44Z"/><path class="cls-8" d="M302,165.63v25.51c0,3.14-1.45,5.09-3.7,5.65a1.82,1.82,0,0,1-.25.07l.32,0h0a27.31,27.31,0,0,0,10.8-3.8,23.43,23.43,0,0,0,4.84-4.39,7.83,7.83,0,0,0,1.35-2,7.32,7.32,0,0,0,.63-2.85V157.88Z"/><path class="cls-9" d="M302,140.16v.63l.06-.67Z"/><path class="cls-10" d="M317,114.78c-.81,3-1.48,5.18-3.61,6.72-1.59,1.15-4.43,2.19-6.3,1-1.69-1-1.24-3.13-2.73-8.82-.06.6-.87,10.08-.92,10.69-.17,2-.44,5.22-.5,5.87-.29,3.39-.52,6-.66,7.66-.05.59-.2,2.26-.25,2.84l14-8V133q.44-5.65.84-11.42.3-4.37.56-8.7C317.26,113.62,317.11,114.24,317,114.78Z"/><path class="cls-9" d="M302,140.79c0,1.44,0,2.62,0,3.43,0,1.71,0,2.73,0,5.58v15.83l14-7.75v-25Z"/><path class="cls-10" d="M208.37,48.06s0-.07,0-.1a.79.79,0,0,0,0,.17v-.07Z"/><path class="cls-10" d="M192.71,37.68l5.2,3a2.5,2.5,0,0,1,1.17,1.77,58.24,58.24,0,0,0,.78,6.51,83,83,0,0,0,5.59,18.18A2.24,2.24,0,0,0,207,68.49h0s0,0,0,0a1.3,1.3,0,0,0,.28,0,.26.26,0,0,0,.12,0,.56.56,0,0,0,.22-.33,45.43,45.43,0,0,0,1.2-6.6,6.83,6.83,0,0,0-.39-.9A22.32,22.32,0,0,1,207,56.1a40.05,40.05,0,0,1-.32-12.58c.17-1.44.6-5.39-1.58-7.88a7,7,0,0,0-3.15-2l-5.21-1.82c-5.54-3.2-10-1.33-10.09,4.17a.76.76,0,0,0,0,.15,7.09,7.09,0,0,1,.8,0A10,10,0,0,1,192.71,37.68Z"/><path class="cls-11" d="M209,54.53a1.93,1.93,0,0,1,0,.24v-.24Z"/><path class="cls-12" d="M208.37,48.06v.07a.06.06,0,0,0,0,0S208.38,48.1,208.37,48.06Z"/><path class="cls-10" d="M213.27,39.37c-.36.07-.69.17-.69.17a6.72,6.72,0,0,0-.88.33,7.63,7.63,0,0,0-2,1.34c-1.15,1.13-1.86,3.71-1.38,6.75a.45.45,0,0,1,0-.11v-.09s0,0,0,0a.84.84,0,0,1,.05-.17,0,0,0,0,1,0,0h0a1.2,1.2,0,0,1,.63-.12c.86,0,15.32,8.79,17.12,9.88l.25-.12,9.75-4.75C223.41,44.6,213.87,39.25,213.27,39.37Z"/><path class="cls-12" d="M208.42,47.54a.85.85,0,0,0,0,.17C208.39,47.64,208.41,47.59,208.42,47.54Z"/><path class="cls-12" d="M208.36,47.85v0Z"/><path class="cls-12" d="M207,68.49h0Z"/><path class="cls-12" d="M303.93,112.31c-1.24-1.85-3.17-4.45-5-5.55a3.66,3.66,0,0,0-1.05-.46c-2.22-.54-3.07,2.44-3.55,6.29-.8,6.47-.54,15.43-3.95,14.46-1.34-.38-2.54-2.1-4-4.33-2-3.06-4.62-7.09-8.88-9.94-4.69-3.13-5.64-1-10.18-4.28-5.85-4.25-6.07-9.12-11.67-13.46a17.5,17.5,0,0,0-14.29-3.42c-5.06.83-5.67,3.78-7.46,2.63-2.36-1.51-5.32-9.18-7.73-37-1.79-1.09-16.25-9.84-17.12-9.89a1.4,1.4,0,0,0-.63.12.05.05,0,0,1,0,0c0,.05,0,.1,0,.17a.64.64,0,0,0,0,.07v.07a1.55,1.55,0,0,0,0,.21s0,.07,0,.11a.06.06,0,0,1,0,0,61.9,61.9,0,0,1,.61,6.39h0v.28c0,.87,0,1.51,0,1.62.05.89-.08,3.17-.14,4.15,0,0,0,.33-.08.9a44.08,44.08,0,0,1-1.2,6.6.59.59,0,0,1-.21.33.31.31,0,0,1-.12,0,.53.53,0,0,1-.28,0h0a2.23,2.23,0,0,1-1.5-1.36A82.42,82.42,0,0,1,199.87,49a60.9,60.9,0,0,1-.79-6.51,2.47,2.47,0,0,0-1.17-1.77l-5.19-3a10.06,10.06,0,0,0-5.24-1.55h-.34c-2.69.24-4.48,2.25-4.51,5.7,0,.1,0,.18,0,.2.1,1.3.85,8.49,3.36,31.6L302,141q1.17-13.62,2.33-27.22C304.21,113.28,304.08,112.81,303.93,112.31Z"/><path class="cls-12" d="M209,54.61v-.09h0Z"/><path class="cls-13" d="M298.05,196.86l-.41,0C297.77,196.89,297.92,196.89,298.05,196.86Z"/><path class="cls-13" d="M268.07,146,200,106.64l-14-8.1v25.62c0,3.77,2.06,8.23,5.11,11.74,4.67,7.12,21,20,41.71,32.91q-.13,3.16-.14,6.56a159.68,159.68,0,0,0,1,17.57c-3.72,9-6.1,24.73-6.1,43.86,0,33.67,7.36,65.21,16.45,70.45a4.69,4.69,0,0,0,3.54.62c7.39-1.75,12.91-22.92,12.91-52.07,0-19.14-2.38-37.59-6.1-50.91a130.79,130.79,0,0,0,1-16.45c0-2.26,0-4.51-.14-6.73l13.7,6.86c11,5.51,16.09,8.08,23.48,8.48a35.5,35.5,0,0,0,4.41,0l.87-.1.41,0a1.82,1.82,0,0,0,.25-.07c2.25-.56,3.7-2.51,3.7-5.65V165.63Z"/><path class="cls-8" d="M186,73.18V98.54l14,8.1L268.07,146l.19-.24L302,165.24V140.79Z"/><path class="cls-8" d="M302,165.24l-33.74-19.47-.19.24L302,165.63Z"/><path class="cls-14" d="M317.81,104.82A19.73,19.73,0,0,0,314.58,94a25.72,25.72,0,0,0-7.31-7.22c-3.1-2.1-6.64-4.5-11.46-4.28-.39,0-.76.07-1.13.12a14.57,14.57,0,0,0-5.64,2h0c1.16-4.43-1.85-8.24-3.11-9.83-3.28-4.17-6.11-3.54-15.76-8.31-8.4-4.14-9.56-6.22-13.14-5.88-5.38.5-9.16,5.81-11.14,9.25,2-5.58,1.86-11.1-.84-13.56a19.12,19.12,0,0,0-5.25-2.91,23.05,23.05,0,0,0-3.6-1l-9.76,4.76-.25.12h0c5.75,3.26,9.95,5.69,10.67,6.15a2.9,2.9,0,0,1,.74.71,2.21,2.21,0,0,1,.43,1.05c.14,1.58.75,6.5.75,6.5.08.86.07.26.66,4,0,.28.3,1.91.81,4.07.43,1.81.67,2.4,1.08,2.75a1.23,1.23,0,0,0,.73.31,1.73,1.73,0,0,0,.85-.18c.17-.83.36-1.72.58-2.66.3-1.27.51-2,.69-2.65a36.73,36.73,0,0,1,2.59-7.38.52.52,0,0,1,.22-.24v0a.6.6,0,0,1,.19-.06h.08a.69.69,0,0,1,.2,0l.08,0h0a1.58,1.58,0,0,1,.31.13L276.49,86.3a17,17,0,0,1,1.17,1.76c2.65,4.67.75,7.6,1.55,14,0,.27.07.54.11.8.16,1.08.39,2.14.63,3.12s.53,1.89.8,2.66a12.77,12.77,0,0,0,.75,1.8,2.75,2.75,0,0,0,.31.46.44.44,0,0,0,.13.09.15.15,0,0,0,.19-.08s0-.09.05-.13l0,0a4.86,4.86,0,0,0,.11-.64c.08-.69.14-1.76.22-3.23.05-.89.1-1.92.19-3.1s.18-2.5.31-4c0-.14,0-.28.05-.42h0c0-.17.05-.32.08-.49s0-.21.05-.31c.06-.3.14-.58.22-.85l.12-.34c.06-.19.13-.37.2-.54l.12-.29c.11-.24.22-.47.35-.7l.13-.23c.1-.17.2-.34.31-.51l.14-.23c.14-.21.28-.42.43-.62v0a1.47,1.47,0,0,0,.1-.13c.32-.46.66-.91,1-1.39a.55.55,0,0,1,.44-.23,1.38,1.38,0,0,1,.62.18l1,.56h0l.42.25h0l5.06,2.92a18.1,18.1,0,0,1,3,2.18c.31.27.62.57.92.87a22.18,22.18,0,0,1,1.71,1.91,21.35,21.35,0,0,1,1.49,2.08c.1.16.2.32.29.48a22.27,22.27,0,0,1,1.45,2.83,18.57,18.57,0,0,1,.77,2.24,13.16,13.16,0,0,1,.47,3.26,1,1,0,0,1,0,.13c.15.5.28,1,.4,1.42,1.49,5.69,1,7.8,2.73,8.82,1.87,1.14,4.71.1,6.3-1,2.13-1.54,2.8-3.76,3.61-6.72.14-.54.29-1.16.43-1.86A28.65,28.65,0,0,0,317.81,104.82Z"/><polygon class="cls-3" points="289.04 84.67 289.04 84.67 289.03 84.67 289.04 84.67 289.04 84.67"/><path class="cls-3" d="M294.76,82.59l-.08.07c.37,0,.74-.1,1.13-.12Z"/><path class="cls-3" d="M303.47,108.92a18.57,18.57,0,0,0-.77-2.24,22.27,22.27,0,0,0-1.45-2.83c-.09-.16-.19-.32-.29-.48a21.35,21.35,0,0,0-1.49-2.08,22.18,22.18,0,0,0-1.71-1.91,18.7,18.7,0,0,0-3.91-3l-5.06-2.92h0l-.42-.25h0l-1-.56a1.38,1.38,0,0,0-.62-.18.55.55,0,0,0-.44.23c-.33.48-.67.93-1,1.39a1.47,1.47,0,0,1-.1.13v0c-.15.2-.29.41-.43.62l-.14.23c-.11.17-.21.34-.31.51l-.13.23c-.13.23-.24.46-.35.7l-.12.29c-.07.17-.14.35-.2.54l-.12.34c-.08.27-.16.55-.22.85,0,.1,0,.21-.05.31s-.06.32-.08.49h0c0,.14,0,.28-.05.42-.06.74-.12,1.44-.18,2.11s-.09,1.28-.13,1.87c-.09,1.18-.14,2.21-.19,3.1-.08,1.47-.14,2.54-.22,3.23a4.86,4.86,0,0,1-.11.64l0,0s0,.09-.05.13a.22.22,0,0,1-.09.08.09.09,0,0,1-.1,0,.44.44,0,0,1-.13-.09,2.75,2.75,0,0,1-.31-.46l-.17-.35c-.12-.25-.25-.56-.38-.9-.07-.18-.14-.36-.2-.55-.27-.77-.55-1.67-.8-2.66s-.47-2-.63-3.12c0-.26-.08-.53-.11-.8-.8-6.37,1.1-9.3-1.55-14a17,17,0,0,0-1.17-1.76L247.88,69.79a1.58,1.58,0,0,0-.31-.13h0l-.08,0h-.28a.6.6,0,0,0-.19.06v0a.52.52,0,0,0-.22.24,36.73,36.73,0,0,0-2.59,7.38c-.18.67-.39,1.38-.69,2.65-.22.94-.41,1.83-.58,2.66a1.73,1.73,0,0,1-.85.18,1.23,1.23,0,0,1-.73-.31c-.41-.35-.65-.94-1.08-2.75-.51-2.16-.77-3.79-.81-4.07-.59-3.74-.58-3.14-.66-4,0,0-.61-4.92-.75-6.5a2.21,2.21,0,0,0-.43-1.05,2.9,2.9,0,0,0-.74-.71c-.72-.46-4.92-2.89-10.67-6.15h0c2.41,27.8,5.37,35.47,7.73,37,1.79,1.15,2.4-1.8,7.46-2.63A17.5,17.5,0,0,1,255.67,95c5.6,4.34,5.82,9.21,11.67,13.46,4.54,3.3,5.49,1.15,10.18,4.28,4.26,2.85,6.84,6.88,8.88,9.94,1.48,2.23,2.68,4,4,4.33,3.41,1,3.15-8,3.95-14.46.48-3.85,1.33-6.83,3.55-6.29a3.66,3.66,0,0,1,1.05.46c1.79,1.1,3.72,3.7,5,5.55a1,1,0,0,0,0-.13A13.16,13.16,0,0,0,303.47,108.92Z"/><polygon class="cls-15" points="255.85 316.94 255.85 232.77 379.53 161.37 379.53 245.54 255.85 316.94"/><path class="cls-3" d="M336,240V238c0-.59-.42-.84-1-.63q-8.61,2.82-8.7.4c0-.74.55-2.07,3.94-5.86a85.67,85.67,0,0,1,14.75-13,2.54,2.54,0,0,0,1.22-1.92v-5.69c0-.68-.55-.9-1.23-.51l-16.76,9.71-17.24,10a2.5,2.5,0,0,0-1.21,1.93l0,9.85c0,.67.54.9,1.22.51h0c1-.25,2.59-.46,2.84.58.41,1.62-2.44,6-7.49,10.64a2.53,2.53,0,0,0-1.21,1.92v2.08c0,.67.55.9,1.22.51L334.74,242A2.54,2.54,0,0,0,336,240Z"/><path class="cls-3" d="M306.75,232.82l-3.66,2.12-13.86,8a1.69,1.69,0,0,0-.81,1.29v.28c0,.3.16.46.39.47h.06l11.56-.56h.15a1.41,1.41,0,0,0,.49-.18l5.69-3.3A2.54,2.54,0,0,0,308,239v-5.69C308,232.66,307.42,232.43,306.75,232.82Z"/><polygon class="cls-15" points="120.42 161.37 120.42 245.54 244.09 316.94 244.09 232.77 120.42 161.37"/><path class="cls-3" d="M203.57,273.25a.65.65,0,0,0-.32,1.22l33,19.07a.65.65,0,1,0,.65-1.12l-33-19.08A.66.66,0,0,0,203.57,273.25Z"/><path class="cls-3" d="M203.57,256.07a.66.66,0,0,0-.56.32.65.65,0,0,0,.24.89l33,19.08a.65.65,0,0,0,.65-1.13l-33-19.07A.66.66,0,0,0,203.57,256.07Z"/><path class="cls-3" d="M203.57,238.89a.64.64,0,0,0-.56.32.65.65,0,0,0,.24.89l33,19.07a.65.65,0,1,0,.65-1.12L203.9,239A.64.64,0,0,0,203.57,238.89Z"/><polygon class="cls-3" points="182.26 197.07 120.42 161.37 120.42 245.54 182.26 281.24 182.26 197.07"/><g class="cls-16"><polygon class="cls-15" points="182.26 197.07 120.42 161.37 120.42 245.54 182.26 281.24 182.26 197.07"/></g><polygon class="cls-3" points="196.85 251.27 196.85 254.41 194.14 254.41 191.42 251.27 191.42 248.13 194.14 248.13 196.85 251.27"/><polygon class="cls-3" points="196.85 269.39 196.85 272.53 194.14 272.53 191.42 269.39 191.42 266.26 194.14 266.26 196.85 269.39"/><polygon class="cls-3" points="196.85 234.09 196.85 237.22 194.14 237.22 191.42 234.09 191.42 230.95 194.14 230.95 196.85 234.09"/><path class="cls-15" d="M227.67,236.62l-15.15-8.74"/><path class="cls-3" d="M212.52,226.9a1,1,0,0,0-.49,1.82l15.16,8.75a1,1,0,0,0,1.33-.36,1,1,0,0,0-.36-1.33L213,227A.94.94,0,0,0,212.52,226.9Z"/></svg>