<svg id="Layer_1" data-name="Layer 1" xmlns="http://www.w3.org/2000/svg" xmlns:xlink="http://www.w3.org/1999/xlink" viewBox="0 0 353.05 123.34"><defs><style>.cls-1{font-size:38.53px;font-family:SegoeUI-Bold, Segoe UI;font-weight:700;}.cls-1,.cls-3{fill:#010101;}.cls-2{letter-spacing:0em;}.cls-4{fill:url(#linear-gradient);}</style><linearGradient id="linear-gradient" x1="-116.59" y1="151.97" x2="-75.06" y2="115.43" gradientTransform="translate(146.09 -98.21) rotate(-5.07)" gradientUnits="userSpaceOnUse"><stop offset="0" stop-color="#262626"/><stop offset="0.1" stop-color="#535353"/><stop offset="0.38" stop-color="#cecece"/><stop offset="0.5" stop-color="#fff"/></linearGradient></defs><text class="cls-1" transform="translate(120.07 71.27)">D<tspan class="cls-2" x="28.41" y="0">r</tspan><tspan x="43.59" y="0">eamFo</tspan><tspan class="cls-2" x="164.06" y="0">r</tspan><tspan x="179.24" y="0">ge</tspan></text><path class="cls-3" d="M125.22,84.94h3.68c4.46,0,6.88,2.65,6.88,7.37s-2.42,7.5-6.79,7.5h-3.77Zm3.54,13.3c3.38,0,5.05-2.17,5.05-5.93s-1.67-5.8-5.05-5.8h-1.63V98.24Z"/><path class="cls-3" d="M159.4,98.2h3.7V86.55h-3.7V84.94h9.29v1.61H165V98.2h3.69v1.61H159.4Z"/><path class="cls-3" d="M192.45,92.38c0-4.81,2.74-7.71,6.59-7.71a5.49,5.49,0,0,1,4.11,1.81l-1.09,1.21a3.87,3.87,0,0,0-3-1.34c-2.78,0-4.6,2.29-4.6,6S196.1,98.4,199,98.4a3.68,3.68,0,0,0,2.56-.86V93.67h-2.95V92.1h4.72v6.26a6.26,6.26,0,0,1-4.44,1.72C195.15,100.08,192.45,97.22,192.45,92.38Z"/><path class="cls-3" d="M227.4,98.2h3.69V86.55H227.4V84.94h9.29v1.61H233V98.2h3.69v1.61H227.4Z"/><path class="cls-3" d="M265.09,86.55h-4.92V84.94h11.74v1.61H267V99.81h-1.9Z"/><path class="cls-3" d="M299,84.94h2.18l5,14.87h-2l-2.56-8.3c-.53-1.65-1-3.28-1.48-5H300c-.47,1.72-1,3.35-1.47,5l-2.61,8.3H294Zm-2.35,8.82h6.82V95.3H296.6Z"/><path class="cls-3" d="M330.28,84.94h1.88V98.2h7.34v1.61h-9.22Z"/><path class="cls-3" d="M80.45,42.71c1.7-3.35,6.38-11.78,9.85-17.69,9.48-16.17,14.37-20.73,13.09-22s-5.8,3.61-22,13.09C75.5,19.61,67.08,24.28,63.72,26c0,0-12,5.45-20.18,13.72l-.11.12A16.4,16.4,0,0,0,66.61,63l.11-.11C75,54.75,80.45,42.71,80.45,42.71Z"/><path class="cls-4" d="M77.25,30.34l-1.85-1.8a1.11,1.11,0,0,0-1.59,0L53.67,49.21l-4.25-4.14a1,1,0,0,0-1.41,0l-1.74,1.79a1,1,0,0,0-.11,1.26l2.57,6a.53.53,0,0,0,0,.12l-.32.33a1.12,1.12,0,0,0,0,1.59L50.31,58a1.13,1.13,0,0,0,1.59,0l.26-.27L56.54,62a.81.81,0,0,0,1.14,0L61.52,58a.81.81,0,0,0,0-1.14l-3.82-3.72h0l-.56-.56L77.27,31.93A1.11,1.11,0,0,0,77.25,30.34Z"/><path class="cls-3" d="M99.11,77.8l-1-9.66a2.09,2.09,0,0,0-2.29-1.85l-28.44,3L38.13,72.35a2.08,2.08,0,0,0-1.85,2.29L38,91.37a2.08,2.08,0,0,0,2.29,1.85h0c1.79.4,4.57,1.3,5.22,3.27,1,3.07-3.35,8.21-11.61,12h0a2.08,2.08,0,0,0-1.85,2.28l.37,3.53a2.09,2.09,0,0,0,2.29,1.85l48.15-5.06a2.08,2.08,0,0,0,1.86-2.29l-.38-3.52a2.09,2.09,0,0,0-1.87-1.86q-15-2.13-15.57-6.32c-.19-1.28.63-3.07,6.06-6.76A69.61,69.61,0,0,1,97.26,80.09h0A2.09,2.09,0,0,0,99.11,77.8ZM70.89,82.86Z"/><path class="cls-3" d="M27,68.16h0L5.09,59.31a1.39,1.39,0,0,0-1.8.77l-.19.46a1.41,1.41,0,0,0,.18,1.35h0l0,0,.06.07L17.72,79l.17.21h0a2,2,0,0,0,.7.47l9,3.64a2.08,2.08,0,0,0,2.71-1.16l3.63-9a2.08,2.08,0,0,0-1.15-2.71Z"/><path class="cls-3" d="M50.67,28.27H46.91a.49.49,0,0,1,0-1h3.76a.49.49,0,0,1,0,1Z"/><path class="cls-3" d="M48.79,30.15a.49.49,0,0,1-.49-.49V25.9a.49.49,0,1,1,1,0v3.76A.49.49,0,0,1,48.79,30.15Z"/><path class="cls-3" d="M53.49,18.45H49.72a.47.47,0,0,1-.48-.48.48.48,0,0,1,.48-.49h3.77A.48.48,0,0,1,54,18,.47.47,0,0,1,53.49,18.45Z"/><path class="cls-3" d="M51.61,20.34a.49.49,0,0,1-.49-.49V16.09a.49.49,0,1,1,1,0v3.76A.49.49,0,0,1,51.61,20.34Z"/><path class="cls-3" d="M58.6,24.25H54.84a.48.48,0,0,1-.49-.48.49.49,0,0,1,.49-.49H58.6a.49.49,0,0,1,.49.49A.48.48,0,0,1,58.6,24.25Z"/><path class="cls-3" d="M56.72,26.14a.49.49,0,0,1-.49-.49V21.89a.49.49,0,0,1,1,0v3.76A.49.49,0,0,1,56.72,26.14Z"/></svg>