<svg id="Layer_1" data-name="Layer 1" xmlns="http://www.w3.org/2000/svg" viewBox="0 0 500 500"><defs><style>.cls-1{fill:#00df9a;}.cls-2{fill:#fefefe;}.cls-3{fill:#de1651;}</style></defs><rect class="cls-1" x="37.72" y="91.03" width="331.71" height="317.93" rx="18.44"/><rect class="cls-2" x="57.33" y="200.86" width="292.51" height="189.73" rx="10.02"/><path class="cls-3" d="M461.71,177.86c1.38,4.58-.11,8.79-.75,10.53-5.34,14.46-15,36.16-20.69,46.39-6,10.85-12.6,21.41-19.46,31.78-1.38,2.09-2.65,2.54-5.1,1.8a65.66,65.66,0,0,1-34.27-24c-1.15-1.53-1.49-2.67-.27-4.36,15-20.73,30.68-41,49.69-58.28,2.82-2.57,8.13-10.06,17.11-11.69,5.18-.93,8,.58,8.75,1A11.72,11.72,0,0,1,461.71,177.86Z"/><path class="cls-3" d="M335.89,357.74A37.61,37.61,0,0,1,320.81,354c-3.41-1.64-3.92-4.64-.84-6.72,8.68-5.83,10.72-14,9.55-23.84-1.86-15.59,5.08-28.58,17.72-34a37.81,37.81,0,0,1,14.16-3.16c2.5-.06,3.41-1,3.36-3.56-.21-9.32,2.27-18,6.53-26.22,1.11-2.14,1.85-2.35,3.35-.36a62.57,62.57,0,0,0,32.84,22.8c2.74.81,2.35,1.8.69,3.47a65.66,65.66,0,0,1-23.32,15.57c-1.31.5-2.63.77-1.57,2.74,4.53,8.44,3.69,17,.15,25.46C375.9,344.14,355.8,357.91,335.89,357.74Z"/><rect class="cls-3" x="57.33" y="105.5" width="42.37" height="28.25" rx="8.01"/><rect class="cls-3" x="110.22" y="105.5" width="42.37" height="28.25" rx="8.01"/><rect class="cls-3" x="163.12" y="105.5" width="42.37" height="28.25" rx="8.01"/><path class="cls-3" d="M105.89,257.36H251.72a11.83,11.83,0,1,0,0-23.65H105.89a11.83,11.83,0,1,0,0,23.65Z"/><path class="cls-3" d="M105.89,283.9H277.42a11.82,11.82,0,0,1,11.82,11.82v0a11.83,11.83,0,0,1-11.83,11.83H105.89a11.83,11.83,0,0,1-11.83-11.83v0A11.83,11.83,0,0,1,105.89,283.9Z"/><path class="cls-3" d="M302,334.09H105.89a11.83,11.83,0,1,0,0,23.65H302a11.83,11.83,0,1,0,0-23.65Z"/></svg>