<svg id="hover" xmlns="http://www.w3.org/2000/svg" viewBox="0 0 500 500"><defs><style>.cls-1{fill:#52c18e;}.cls-2{fill:#2e5644;}.cls-3{fill:#409873;}.cls-15,.cls-4{fill:#fff;}.cls-5{fill:#44966d;}.cls-6{fill:#6cd3a0;}.cls-7{fill:#68dd9f;}.cls-8{fill:#fefefe;}.cls-11,.cls-9{fill:#1ea55e;}.cls-10{fill:#6c9;}.cls-11{opacity:0.45;}.cls-12{fill:#28af65;}.cls-13{fill:#23c172;}.cls-14{fill:#25af66;}.cls-15{opacity:0;}</style></defs><path class="cls-1" d="M378.54,367.25v6l-60.94,35.2-81.27-46.92c0-1.95,0-3.9,0-5.85L286,325Z"/><path class="cls-1" d="M404,376l0-152.36L190.63,100.36V252.84Z"/><path class="cls-2" d="M419.19,367.21V214.72l-15.27,8.92L404,376Z"/><path class="cls-3" d="M419.19,214.72,205.87,91.56l-15.24,8.8L403.92,223.64Z"/><path class="cls-4" d="M393.79,358.46l.08-129.18L200.75,118l.06,129Z"/><path class="cls-5" d="M317.61,402.74l60.93-35.49-83.19-47.82-59,36.27Z"/><path class="cls-1" d="M317.53,373.22l-30.46-17.73q0-23.46.05-46.94l30.42,17.66Z"/><path class="cls-6" d="M317.54,326.21l10.18,6q.11,17.58.19,35.16l-10.38,5.88Z"/><path class="cls-7" d="M313.51,240.71l-5.4,3.13-4-2.13-3.42,3.3-11.49-6.64,2-3.5-4-2.35v-7.81l3.42-2,2.22-5.2-2.94-1.44L293.5,209l3.79-.26,2-2,2-5.08,4.74-2.73,3.38,2,4.05-3.14L325,204.42l-2,3.51,4.74,2.74v6.22L323.65,220l-1.36,3.91,2,2.72-2.72,6.26-4.67.35-2.76,2.37Z"/><path class="cls-8" d="M314.51,213.87a3,3,0,0,1,1.62.44c1.21.79,1.36,2.4,1.48,3.19a14.41,14.41,0,0,1-6.18,13.79,8,8,0,0,1-4.26,1.22c-2.36,0-3.23-2.14-3.51-3.8-.9-5.48,3.95-11.62,6.57-13.45a7.43,7.43,0,0,1,3.93-1.4Zm.55-3.23a10.19,10.19,0,0,0-5.54,1.89c-5.58,3.7-9.19,12.08-8.21,18.09.65,3.93,2.36,5.13,5.57,5.13a10.13,10.13,0,0,0,5.54-1.9c5.58-3.69,9.36-11.71,8.37-17.72C320.15,212.2,318.27,210.64,315.06,210.64Z"/><ellipse class="cls-8" cx="311.05" cy="223.91" rx="4.55" ry="3.04" transform="translate(-48.35 357.01) rotate(-56.07)"/><path class="cls-9" d="M320.27,201.69l-3.4,3.5-7.41-4.28,4.05-3.14Z"/><path class="cls-9" d="M327.71,210.67h-4.07l-1.35-1.58.68-1.17Z"/><path class="cls-9" d="M308.11,243.84l-1.82-4-2.4,1.87Z"/><path class="cls-10" d="M297.3,226.67l-6.73-3.91-3.42,2,6.75,3.93Z"/><path class="cls-11" d="M297.3,226.67l2-4.29-2.69-2.33-4.07-2.36-2.07,5.05Z"/><path class="cls-12" d="M296.63,220.05l3.39-6.62L293.5,209l-3.65,7.14Z"/><path class="cls-9" d="M304,212.59l2.7-1.49,1.35-4.73-6.75-4.69-2,5.08-2,2Z"/><path class="cls-13" d="M308.09,206.37l5.42-3.12-7.43-4.3-4.74,2.73Z"/><path class="cls-13" d="M293.88,236.44l0-7.8-6.75-3.93v7.81Z"/><path class="cls-14" d="M293.88,236.44l-2.72-1.59-2,3.52,6,3.47,3.45-4.25,0-1.88Z"/><path class="cls-7" d="M366.33,321.6l-4.93,2.87-3.68-2-3.13,3-10.51-6.07,1.84-3.2-3.7-2.15V307l3.12-1.79,2-4.76-2.69-1.31,3.34-6.54,3.46-.24,1.86-1.79,1.85-4.64,4.34-2.51,3.09,1.8,3.7-2.87,10.52,6.08L375,291.61l4.33,2.5v5.7l-3.71,2.87-1.24,3.57,1.87,2.48-2.49,5.73-4.27.33L367,317Z"/><path class="cls-8" d="M367.24,297.05a2.69,2.69,0,0,1,1.49.4c1.1.72,1.24,2.19,1.36,2.91A13.22,13.22,0,0,1,364.43,313a7.28,7.28,0,0,1-3.9,1.12c-2.16,0-3-2-3.2-3.48-.83-5,3.61-10.63,6-12.3a6.7,6.7,0,0,1,3.59-1.29Zm.51-3a9.34,9.34,0,0,0-5.07,1.73c-5.1,3.39-8.41,11.05-7.5,16.55.59,3.6,2.15,4.69,5.09,4.69a9.34,9.34,0,0,0,5.07-1.73c5.1-3.38,8.56-10.72,7.65-16.22C372.4,295.51,370.68,294.09,367.75,294.09Z"/><ellipse class="cls-8" cx="364.08" cy="306.23" rx="4.16" ry="2.78" transform="translate(-93.22 437.39) rotate(-56.07)"/><path class="cls-9" d="M372.52,285.9l-3.12,3.21-6.77-3.92,3.7-2.87Z"/><path class="cls-9" d="M379.32,294.11l-3.72,0-1.23-1.44.62-1.08Z"/><path class="cls-9" d="M361.4,324.47l-1.68-3.68-2.19,1.71Z"/><path class="cls-10" d="M351.5,308.76l-6.16-3.58L342.22,307l6.17,3.58Z"/><path class="cls-11" d="M351.5,308.76l1.85-3.93-2.46-2.13-3.72-2.16-1.9,4.62Z"/><path class="cls-12" d="M350.89,302.7l3.1-6.05-6-4.08-3.34,6.54Z"/><path class="cls-9" d="M357.67,295.88l2.47-1.37,1.24-4.33-6.18-4.28-1.85,4.64-1.86,1.79Z"/><path class="cls-13" d="M361.38,290.18l4.95-2.85-6.79-3.94-4.34,2.51Z"/><path class="cls-13" d="M348.38,317.69v-7.14L342.22,307v7.14Z"/><path class="cls-14" d="M348.38,317.69l-2.5-1.45-1.8,3.22,5.5,3.18,3.15-3.9V317Z"/><path class="cls-7" d="M302.88,305.48l-4.94,2.86-3.68-1.95-3.13,3-10.51-6.07,1.84-3.2-3.7-2.15v-7.14l3.13-1.79,2-4.76L281.23,283l3.34-6.54,3.47-.24,1.85-1.78,1.85-4.65,4.34-2.5,3.09,1.8,3.71-2.88,10.51,6.09-1.86,3.2,4.33,2.51v5.69l-3.71,2.87-1.24,3.57,1.87,2.49-2.48,5.73-4.28.32-2.52,2.17Z"/><path class="cls-8" d="M303.79,280.92a2.77,2.77,0,0,1,1.48.4c1.11.72,1.24,2.2,1.36,2.92A13.21,13.21,0,0,1,301,296.86a7.35,7.35,0,0,1-3.9,1.11c-2.16,0-2.95-2-3.2-3.47-.82-5,3.61-10.63,6-12.31a6.76,6.76,0,0,1,3.59-1.28Zm.5-2.95a9.28,9.28,0,0,0-5.07,1.73c-5.1,3.38-8.4,11-7.5,16.55.59,3.59,2.16,4.68,5.09,4.68a9.34,9.34,0,0,0,5.07-1.73c5.11-3.38,8.56-10.71,7.66-16.22C309,279.39,307.23,278,304.29,278Z"/><ellipse class="cls-8" cx="300.63" cy="290.1" rx="4.16" ry="2.78" transform="translate(-107.88 377.61) rotate(-56.07)"/><path class="cls-9" d="M309.06,269.77,306,273l-6.78-3.91,3.71-2.88Z"/><path class="cls-9" d="M315.86,278h-3.72l-1.23-1.44.62-1.08Z"/><path class="cls-9" d="M297.94,308.34l-1.67-3.67-2.2,1.71Z"/><path class="cls-10" d="M288,292.63l-6.15-3.58-3.13,1.79,6.17,3.59Z"/><path class="cls-11" d="M288,292.63l1.85-3.93-2.45-2.13-3.73-2.16-1.9,4.62Z"/><path class="cls-12" d="M287.44,286.57l3.09-6.05-6-4.08L281.23,283Z"/><path class="cls-9" d="M294.21,279.75l2.47-1.36,1.24-4.34-6.18-4.28-1.85,4.65L288,276.2Z"/><path class="cls-13" d="M297.92,274.05l5-2.84-6.8-3.94-4.34,2.5Z"/><path class="cls-13" d="M284.92,301.57v-7.14l-6.17-3.59V298Z"/><path class="cls-14" d="M284.92,301.57l-2.49-1.46-1.81,3.22,5.5,3.18,3.15-3.89,0-1.72Z"/><path class="cls-7" d="M354.53,252.47l-3.15,1.83L349,253.06,347,255l-6.72-3.88,1.18-2-2.36-1.38v-4.56l2-1.15,1.31-3-1.73-.84,2.14-4.18,2.22-.15,1.18-1.14,1.19-3,2.77-1.6,2,1.15,2.37-1.83,6.73,3.89-1.19,2.05,2.77,1.6v3.64l-2.37,1.83-.8,2.29,1.2,1.59-1.59,3.66-2.73.21-1.62,1.38Z"/><path class="cls-8" d="M355.12,236.77a1.74,1.74,0,0,1,.94.26,2.51,2.51,0,0,1,.87,1.86,8.44,8.44,0,0,1-3.61,8.07,4.73,4.73,0,0,1-2.5.72c-1.38,0-1.89-1.25-2.05-2.23-.52-3.2,2.31-6.79,3.85-7.86a4.29,4.29,0,0,1,2.29-.83Zm.32-1.89A6,6,0,0,0,352.2,236c-3.27,2.16-5.38,7.06-4.8,10.58.38,2.3,1.38,3,3.26,3a6,6,0,0,0,3.24-1.11c3.26-2.16,5.47-6.85,4.89-10.37C358.42,235.79,357.32,234.88,355.44,234.88Z"/><ellipse class="cls-8" cx="353.09" cy="242.64" rx="2.66" ry="1.78" transform="translate(-45.32 400.18) rotate(-56.07)"/><path class="cls-9" d="M358.49,229.65l-2,2-4.34-2.51,2.37-1.83Z"/><path class="cls-9" d="M362.84,234.9h-2.38l-.79-.93.4-.68Z"/><path class="cls-9" d="M351.38,254.3,350.31,252l-1.4,1.09Z"/><path class="cls-10" d="M345.05,244.26,341.11,242l-2,1.15,3.94,2.29Z"/><path class="cls-11" d="M345.05,244.26l1.18-2.51-1.57-1.36L342.28,239l-1.21,3Z"/><path class="cls-12" d="M344.66,240.39l2-3.87-3.81-2.61-2.14,4.18Z"/><path class="cls-9" d="M349,236l1.57-.88.79-2.77-3.94-2.74-1.19,3-1.18,1.14Z"/><path class="cls-13" d="M351.36,232.38l3.17-1.82L350.19,228l-2.77,1.6Z"/><path class="cls-13" d="M343.05,250v-4.56l-3.94-2.29v4.56Z"/><path class="cls-14" d="M343.05,250l-1.59-.93-1.16,2.06,3.52,2,2-2.49v-1.1Z"/><path class="cls-7" d="M264.05,246.77l-6.71,3.89-5-2.65-4.25,4.1-14.29-8.25,2.5-4.36-5-2.92v-9.71l4.24-2.43,2.77-6.47-3.66-1.78,4.54-8.89,4.72-.33,2.52-2.43,2.51-6.31,5.9-3.41,4.2,2.45,5-3.91,14.29,8.27L275.82,206l5.89,3.41v7.74l-5,3.9L275,225.9l2.55,3.38c-1.13,2.59-2.25,5.19-3.38,7.78l-5.81.44-3.44,2.95Z"/><path class="cls-8" d="M265.29,213.39a3.58,3.58,0,0,1,2,.54c1.51,1,1.69,3,1.85,4a18,18,0,0,1-7.69,17.16,9.94,9.94,0,0,1-5.3,1.52c-2.94,0-4-2.66-4.36-4.73-1.12-6.82,4.91-14.45,8.17-16.72a9.16,9.16,0,0,1,4.89-1.75Zm.69-4a12.73,12.73,0,0,0-6.9,2.35c-6.94,4.6-11.43,15-10.2,22.5.8,4.89,2.93,6.37,6.92,6.37a12.73,12.73,0,0,0,6.9-2.35c6.94-4.6,11.63-14.57,10.4-22.05C272.3,211.3,270,209.37,266,209.37Z"/><ellipse class="cls-8" cx="260.99" cy="225.87" rx="5.66" ry="3.78" transform="matrix(0.56, -0.83, 0.83, 0.56, -72.1, 316.34)"/><path class="cls-9" d="M272.46,198.23l-4.24,4.36L259,197.27l5-3.91Z"/><path class="cls-9" d="M281.71,209.4h-5.06L275,207.46l.84-1.47Z"/><path class="cls-9" d="M257.34,250.66l-2.28-5-3,2.33Z"/><path class="cls-10" d="M243.88,229.3l-8.37-4.86-4.24,2.43,8.39,4.88Z"/><path class="cls-11" d="M243.88,229.3,246.4,224l-3.34-2.9L238,218.13l-2.58,6.28Z"/><path class="cls-12" d="M243.06,221.07l4.21-8.23-8.11-5.54-4.54,8.89Z"/><path class="cls-9" d="M252.27,211.8l3.36-1.86,1.68-5.89-8.4-5.82-2.51,6.31L243.88,207Z"/><path class="cls-13" d="M257.31,204.05l6.74-3.87-9.24-5.36-5.9,3.41Z"/><path class="cls-13" d="M239.63,241.45l0-9.7-8.39-4.88v9.71Z"/><path class="cls-14" d="M239.63,241.45l-3.38-2-2.46,4.38,7.48,4.32,4.29-5.3v-2.34Z"/><path class="cls-7" d="M233.05,189l-3.73,2.17-2.79-1.48L224.17,192l-7.95-4.59,1.39-2.42-2.79-1.62v-5.4l2.36-1.35,1.54-3.6-2-1,2.52-4.94,2.62-.18,1.4-1.35,1.4-3.52,3.28-1.89,2.33,1.36,2.81-2.17,7.94,4.6-1.4,2.42,3.27,1.9v4.3l-2.8,2.17-.94,2.7,1.41,1.88-1.87,4.33-3.23.24-1.91,1.64Z"/><path class="cls-8" d="M233.73,170.44a2.1,2.1,0,0,1,1.13.31,3,3,0,0,1,1,2.2,10,10,0,0,1-4.27,9.54,5.51,5.51,0,0,1-3,.84c-1.63,0-2.23-1.48-2.42-2.63-.62-3.79,2.73-8,4.54-9.29a5.13,5.13,0,0,1,2.72-1Zm.39-2.23a7,7,0,0,0-3.83,1.31c-3.86,2.55-6.36,8.35-5.68,12.51.45,2.71,1.63,3.54,3.85,3.54a7,7,0,0,0,3.83-1.31c3.86-2.56,6.47-8.1,5.79-12.26C237.63,169.28,236.34,168.21,234.12,168.21Z"/><ellipse class="cls-8" cx="231.35" cy="177.38" rx="3.14" ry="2.1" transform="translate(-44.96 270.33) rotate(-56.07)"/><path class="cls-9" d="M237.72,162l-2.35,2.42-5.13-3,2.81-2.17Z"/><path class="cls-9" d="M242.86,168.23h-2.81l-.93-1.09.47-.82Z"/><path class="cls-9" d="M229.32,191.17l-1.27-2.78-1.66,1.29Z"/><path class="cls-10" d="M221.84,179.29l-4.66-2.7-2.36,1.35,4.67,2.71Z"/><path class="cls-11" d="M221.84,179.29l1.39-3-1.85-1.62-2.82-1.63-1.43,3.49Z"/><path class="cls-12" d="M221.38,174.71l2.34-4.57-4.51-3.08L216.69,172Z"/><path class="cls-9" d="M226.5,169.56l1.86-1,.94-3.28L224.63,162l-1.4,3.52-1.4,1.35Z"/><path class="cls-13" d="M229.3,165.25l3.75-2.15-5.14-3L224.63,162Z"/><path class="cls-13" d="M219.47,186.05v-5.4l-4.66-2.71v5.4Z"/><path class="cls-14" d="M219.47,186.05l-1.88-1.1-1.37,2.43,4.16,2.41,2.38-2.95,0-1.3Z"/><path class="cls-4" d="M356.18,207.53v43.52c4.42,2.54,20.42,11.67,24.85,14.21V221.74C376.6,219.2,360.6,210.07,356.18,207.53Z"/><path class="cls-4" d="M315.49,269.85c4.42,2.55,15.63,8.63,20.05,11.18V195.37c-4.42-2.53-15.63-8.6-20.05-11.14Z"/><path class="cls-4" d="M258.21,151V280.08c4.42,2.56,18.92,10.9,23.34,13.45V245.17l3.33-4q.6-18.44,1.19-36.86l-4.52-2.07V164.25C281.41,164.16,270,157.68,258.21,151Z"/><rect class="cls-15" x="80.81" y="196.81" width="109.83" height="31.57"/></svg>