<?xml version="1.0" encoding="UTF-8" standalone="no"?>
<!-- Created with Inkscape (http://www.inkscape.org/) -->

<svg
   version="1.1"
   id="svg2"
   xml:space="preserve"
   width="1880.8933"
   height="352"
   viewBox="0 0 1880.8933 352"
   sodipodi:docname="spellwarelogo_hor.ai"
   xmlns:inkscape="http://www.inkscape.org/namespaces/inkscape"
   xmlns:sodipodi="http://sodipodi.sourceforge.net/DTD/sodipodi-0.dtd"
   xmlns:xlink="http://www.w3.org/1999/xlink"
   xmlns="http://www.w3.org/2000/svg"
   xmlns:svg="http://www.w3.org/2000/svg"><defs
     id="defs6"><clipPath
       clipPathUnits="userSpaceOnUse"
       id="clipPath16"><path
         d="M 0,264 H 1410.667 V 0 H 0 Z"
         id="path14" /></clipPath><clipPath
       clipPathUnits="userSpaceOnUse"
       id="clipPath24"><path
         d="m -359.889,302.72 h 978 v -470.107 h -978 z"
         id="path22" /></clipPath><clipPath
       clipPathUnits="userSpaceOnUse"
       id="clipPath28"><path
         d="m -359.889,302.72 h 978 v -470.107 h -978 z"
         id="path26" /></clipPath><mask
       maskUnits="userSpaceOnUse"
       x="0"
       y="0"
       width="1"
       height="1"
       id="mask30"><g
         id="g40"><g
           clip-path="url(#clipPath28)"
           id="g38"><g
             id="g36"><g
               transform="matrix(978,0,0,470.10648,-359.88888,-167.38664)"
               id="g34"></g></g></g></g></mask><mask
       maskUnits="userSpaceOnUse"
       x="0"
       y="0"
       width="1"
       height="1"
       id="mask42"></mask><clipPath
       clipPathUnits="userSpaceOnUse"
       id="clipPath66"><path
         d="M 0,264 H 1410.667 V 0 H 0 Z"
         id="path64" /></clipPath><clipPath
       clipPathUnits="userSpaceOnUse"
       id="clipPath136"><path
         d="M 0,264 H 1410.667 V 0 H 0 Z"
         id="path134" /></clipPath></defs><sodipodi:namedview
     id="namedview4"
     pagecolor="#ffffff"
     bordercolor="#666666"
     borderopacity="1.0"
     inkscape:pageshadow="2"
     inkscape:pageopacity="0.0"
     inkscape:pagecheckerboard="0" /><g
     id="g8"
     inkscape:groupmode="layer"
     inkscape:label="spellwarelogo_hor"
     transform="matrix(1.3333333,0,0,-1.3333333,0,352)"><g
       id="g10"><g
         id="g12"
         clip-path="url(#clipPath16)"><g
           id="g18"><g
             id="g20" /><g
             id="g58"><g
               clip-path="url(#clipPath24)"
               opacity="0.259995"
               id="g56"><g
                 id="g54"><g
                   id="g46" /><g
                   mask="url(#mask30)"
                   id="g52"><g
                     transform="matrix(978,0,0,470.10648,-359.88888,-167.38664)"
                     id="g50"></g></g></g></g></g></g></g></g><g
       id="g60"><g
         id="g62"
         clip-path="url(#clipPath66)"><g
           id="g68"
           transform="translate(371.5117,152.5491)"><path
             d="m 0,0 c -1.024,1.194 -2.39,2.347 -4.096,3.456 -1.708,1.108 -3.628,2.112 -5.76,3.009 -2.134,0.895 -4.46,1.619 -6.976,2.176 -2.519,0.553 -5.142,0.832 -7.872,0.832 -6.998,0 -12.16,-1.321 -15.488,-3.956 -3.329,-2.639 -4.993,-6.254 -4.993,-10.847 0,-3.232 0.853,-5.783 2.561,-7.655 1.706,-1.872 4.33,-3.405 7.872,-4.595 3.54,-1.191 8.042,-2.424 13.504,-3.699 6.313,-1.363 11.776,-3.023 16.384,-4.979 4.608,-1.956 8.148,-4.572 10.624,-7.846 2.474,-3.276 3.712,-7.633 3.712,-13.078 0,-4.339 -0.832,-8.103 -2.496,-11.294 -1.664,-3.19 -3.99,-5.828 -6.976,-7.912 -2.988,-2.084 -6.486,-3.616 -10.496,-4.593 -4.012,-0.977 -8.364,-1.466 -13.056,-1.466 -4.608,0 -9.11,0.491 -13.504,1.471 -4.396,0.98 -8.556,2.411 -12.48,4.289 -3.926,1.875 -7.596,4.223 -11.008,7.04 l 5.504,9.727 c 1.364,-1.452 3.136,-2.88 5.311,-4.288 2.177,-1.407 4.651,-2.71 7.425,-3.903 2.772,-1.197 5.78,-2.157 9.024,-2.88 3.242,-0.727 6.57,-1.089 9.984,-1.089 6.484,0 11.52,1.166 15.104,3.503 3.584,2.336 5.376,5.754 5.376,10.254 0,3.403 -1.004,6.126 -3.008,8.168 -2.006,2.042 -4.972,3.744 -8.896,5.105 -3.926,1.363 -8.704,2.725 -14.336,4.086 -6.144,1.532 -11.308,3.212 -15.488,5.042 -4.183,1.828 -7.318,4.233 -9.408,7.212 -2.092,2.979 -3.136,6.851 -3.136,11.616 0,5.786 1.408,10.678 4.224,14.678 2.816,4 6.698,7.02 11.648,9.064 4.947,2.042 10.538,3.064 16.768,3.064 4.095,0 7.914,-0.428 11.456,-1.279 3.54,-0.855 6.847,-2.048 9.92,-3.584 C 0,13.313 2.815,11.477 5.376,9.345 Z"
             style="fill:#ffffff;fill-opacity:1;fill-rule:nonzero;stroke:none"
             id="path70" /></g><g
           id="g72"
           transform="translate(426.8066,89.1898)"><path
             d="m 0,0 c 3.328,0 6.336,0.695 9.024,2.09 2.688,1.391 4.993,3.25 6.913,5.574 1.919,2.321 3.391,4.962 4.416,7.918 1.023,2.956 1.535,5.996 1.535,9.122 0,3.292 -0.576,6.418 -1.728,9.374 -1.152,2.956 -2.774,5.573 -4.864,7.854 -2.092,2.28 -4.524,4.074 -7.296,5.383 -2.773,1.309 -5.782,1.964 -9.023,1.964 -2.049,0 -4.161,-0.38 -6.336,-1.137 -2.177,-0.76 -4.246,-1.834 -6.208,-3.224 -1.965,-1.393 -3.629,-2.973 -4.993,-4.742 -1.366,-1.773 -2.262,-3.668 -2.688,-5.691 V 15.556 c 1.28,-2.868 2.986,-5.482 5.12,-7.842 2.132,-2.36 4.608,-4.236 7.424,-5.628 C -5.888,0.693 -2.988,0 0,0 m 3.456,-9.729 c -5.462,0 -10.326,1.355 -14.592,4.067 -4.268,2.71 -7.637,6.14 -10.112,10.292 v -40.342 h -11.264 v 93.695 h 9.984 V 45.414 c 2.644,4.064 6.1,7.346 10.368,9.846 4.266,2.498 8.916,3.748 13.952,3.748 4.608,0 8.832,-0.932 12.672,-2.796 3.84,-1.864 7.168,-4.404 9.984,-7.622 2.816,-3.22 5.012,-6.882 6.592,-10.99 1.578,-4.108 2.368,-8.409 2.368,-12.896 0,-6.268 -1.26,-12.028 -3.776,-17.28 C 27.114,2.172 23.594,-2 19.072,-5.092 14.548,-8.185 9.344,-9.729 3.456,-9.729"
             style="fill:#ffffff;fill-opacity:1;fill-rule:nonzero;stroke:none"
             id="path74" /></g><g
           id="g76"
           transform="translate(481.0771,117.8617)"><path
             d="m 0,0 h 45.567 c -0.341,4.3 -1.579,8.096 -3.712,11.386 -2.133,3.29 -4.863,5.862 -8.191,7.718 -3.328,1.856 -6.998,2.784 -11.008,2.784 -3.927,0 -7.552,-0.928 -10.881,-2.784 C 8.448,17.248 5.738,14.676 3.647,11.386 1.556,8.096 0.34,4.3 0,0 m 22.527,-38.4 c -5.035,0 -9.621,0.912 -13.759,2.732 -4.14,1.82 -7.724,4.32 -10.752,7.496 -3.031,3.176 -5.376,6.838 -7.04,10.99 -1.664,4.15 -2.497,8.554 -2.497,13.214 0,6.268 1.451,11.984 4.353,17.152 2.899,5.166 6.932,9.316 12.096,12.45 5.162,3.134 11.072,4.702 17.728,4.702 6.74,0 12.608,-1.59 17.6,-4.768 4.992,-3.18 8.874,-7.332 11.648,-12.461 2.772,-5.128 4.159,-10.659 4.159,-16.593 0,-0.848 -0.021,-1.674 -0.063,-2.478 -0.044,-0.807 -0.108,-1.42 -0.192,-1.845 H 0.384 c 0.34,-4.303 1.555,-8.119 3.648,-11.451 2.09,-3.332 4.8,-5.948 8.128,-7.846 3.328,-1.898 6.912,-2.846 10.752,-2.846 4.096,0 7.956,1.024 11.584,3.072 3.626,2.048 6.122,4.735 7.487,8.064 l 9.729,-2.688 c -1.452,-3.244 -3.607,-6.144 -6.464,-8.704 -2.86,-2.561 -6.23,-4.566 -10.112,-6.016 -3.884,-1.45 -8.086,-2.176 -12.609,-2.176"
             style="fill:#ffffff;fill-opacity:1;fill-rule:nonzero;stroke:none"
             id="path78" /></g><g
           id="g80"
           transform="translate(549.9395,174.182)"><path
             d="m 0,0 h 11.264 v -76.509 c 0,-3.685 0.512,-5.958 1.536,-6.813 1.024,-0.859 2.26,-1.286 3.712,-1.286 1.792,0 3.498,0.192 5.12,0.576 1.62,0.384 2.986,0.788 4.096,1.216 l 1.792,-9.216 c -1.878,-0.769 -4.096,-1.408 -6.656,-1.92 -2.56,-0.513 -4.822,-0.769 -6.784,-0.769 -4.352,0 -7.788,1.244 -10.304,3.727 C 1.258,-88.511 0,-85.038 0,-80.582 Z"
             style="fill:#ffffff;fill-opacity:1;fill-rule:nonzero;stroke:none"
             id="path82" /></g><g
           id="g84"
           transform="translate(586.5469,174.182)"><path
             d="m 0,0 h 11.264 v -76.509 c 0,-3.685 0.512,-5.958 1.536,-6.813 1.024,-0.859 2.26,-1.286 3.712,-1.286 1.792,0 3.498,0.192 5.12,0.576 1.62,0.384 2.986,0.788 4.096,1.216 l 1.792,-9.216 c -1.878,-0.769 -4.096,-1.408 -6.656,-1.92 -2.56,-0.513 -4.822,-0.769 -6.784,-0.769 -4.352,0 -7.788,1.244 -10.304,3.727 C 1.258,-88.511 0,-85.038 0,-80.582 Z"
             style="fill:#ffffff;fill-opacity:1;fill-rule:nonzero;stroke:none"
             id="path86" /></g><g
           id="g88"
           transform="translate(704.1787,147.1732)"><path
             d="m 0,0 h 10.88 l -28.416,-66.432 h -9.856 l -12.928,31.308 -12.8,-31.308 h -9.856 L -91.392,0 h 10.752 l 23.04,-55.359 10.752,27.233 -11.264,27.998 h 9.856 l 7.936,-21.126 7.936,21.126 h 9.856 l -11.136,-27.998 10.752,-27.233 z"
             style="fill:#ffffff;fill-opacity:1;fill-rule:nonzero;stroke:none"
             id="path90" /></g><g
           id="g92"
           transform="translate(762.1641,95.2591)"><path
             d="m 0,0 c 1.024,1.183 1.834,2.387 2.433,3.612 0.595,1.224 0.895,2.26 0.895,3.105 v 8.237 c -2.645,1.013 -5.42,1.794 -8.319,2.345 -2.903,0.548 -5.761,0.823 -8.576,0.823 -5.718,0 -10.349,-1.12 -13.889,-3.357 -3.542,-2.241 -5.312,-5.302 -5.312,-9.189 0,-2.111 0.577,-4.162 1.728,-6.145 1.152,-1.987 2.858,-3.613 5.12,-4.88 2.261,-1.269 5.057,-1.901 8.385,-1.901 3.497,0 6.825,0.697 9.983,2.09 C -4.396,-3.865 -1.878,-2.111 0,0 m -43.52,4.683 c 0,4.24 1.216,7.908 3.648,11.004 2.433,3.095 5.78,5.492 10.049,7.187 4.265,1.696 9.216,2.544 14.847,2.544 2.987,0 6.144,-0.235 9.472,-0.703 3.328,-0.471 6.273,-1.175 8.832,-2.112 v 4.835 c 0,5.048 -1.536,9.025 -4.607,11.928 -3.073,2.904 -7.425,4.357 -13.057,4.357 -3.67,0 -7.189,-0.662 -10.56,-1.985 -3.372,-1.324 -6.934,-3.221 -10.688,-5.696 l -4.096,7.937 c 4.353,2.986 8.704,5.225 13.056,6.719 4.353,1.492 8.874,2.24 13.568,2.24 8.533,0 15.275,-2.347 20.224,-7.043 4.948,-4.697 7.425,-11.231 7.425,-19.605 V -1.754 c 0,-1.353 0.275,-2.348 0.832,-2.981 0.554,-0.636 1.471,-0.994 2.752,-1.078 v -8.705 c -1.111,-0.17 -2.071,-0.297 -2.881,-0.383 -0.812,-0.084 -1.472,-0.128 -1.983,-0.128 -2.647,0 -4.63,0.723 -5.953,2.175 -1.324,1.451 -2.07,2.987 -2.24,4.609 l -0.256,4.224 c -2.902,-3.756 -6.7,-6.657 -11.391,-8.705 -4.695,-2.047 -9.345,-3.072 -13.952,-3.072 -4.439,0 -8.407,0.912 -11.905,2.735 -3.5,1.824 -6.229,4.282 -8.191,7.377 -1.965,3.096 -2.945,6.552 -2.945,10.369"
             style="fill:#ffffff;fill-opacity:1;fill-rule:nonzero;stroke:none"
             id="path94" /></g><g
           id="g96"
           transform="translate(830.1309,137.7015)"><path
             d="m 0,0 c -5.632,-0.086 -10.604,-1.516 -14.912,-4.288 -4.311,-2.774 -7.36,-6.592 -9.152,-11.456 V -56.96 H -35.328 V 9.472 h 10.496 V -5.632 c 2.304,4.608 5.353,8.34 9.151,11.2 3.797,2.858 7.786,4.458 11.969,4.8 h 2.176 c 0.596,0 1.107,-0.044 1.536,-0.128 z"
             style="fill:#ffffff;fill-opacity:1;fill-rule:nonzero;stroke:none"
             id="path98" /></g><g
           id="g100"
           transform="translate(846.7705,117.8617)"><path
             d="m 0,0 h 45.568 c -0.342,4.3 -1.58,8.096 -3.712,11.386 -2.134,3.29 -4.864,5.862 -8.192,7.718 -3.328,1.856 -6.998,2.784 -11.008,2.784 -3.927,0 -7.552,-0.928 -10.881,-2.784 C 8.448,17.248 5.738,14.676 3.647,11.386 1.556,8.096 0.34,4.3 0,0 m 22.528,-38.4 c -5.036,0 -9.622,0.912 -13.76,2.732 -4.14,1.82 -7.724,4.32 -10.752,7.496 -3.031,3.176 -5.376,6.838 -7.04,10.99 -1.664,4.15 -2.497,8.554 -2.497,13.214 0,6.268 1.451,11.984 4.353,17.152 2.899,5.166 6.932,9.316 12.096,12.45 5.162,3.134 11.072,4.702 17.728,4.702 6.74,0 12.608,-1.59 17.6,-4.768 4.992,-3.18 8.874,-7.332 11.648,-12.461 2.772,-5.128 4.16,-10.659 4.16,-16.593 0,-0.848 -0.022,-1.674 -0.064,-2.478 -0.044,-0.807 -0.108,-1.42 -0.192,-1.845 H 0.384 c 0.34,-4.303 1.555,-8.119 3.648,-11.451 2.09,-3.332 4.8,-5.948 8.128,-7.846 3.328,-1.898 6.912,-2.846 10.752,-2.846 4.096,0 7.956,1.024 11.584,3.072 3.626,2.048 6.122,4.735 7.488,8.064 l 9.728,-2.688 c -1.452,-3.244 -3.606,-6.144 -6.464,-8.704 -2.86,-2.561 -6.229,-4.566 -10.112,-6.016 -3.884,-1.45 -8.086,-2.176 -12.608,-2.176"
             style="fill:#ffffff;fill-opacity:1;fill-rule:nonzero;stroke:none"
             id="path102" /></g><g
           id="g104"
           transform="translate(1002.9277,152.5491)"><path
             d="m 0,0 c -1.023,1.194 -2.39,2.347 -4.096,3.456 -1.708,1.108 -3.628,2.112 -5.759,3.009 -2.135,0.895 -4.46,1.619 -6.977,2.176 -2.518,0.553 -5.142,0.832 -7.872,0.832 -6.998,0 -12.16,-1.321 -15.487,-3.956 -3.329,-2.639 -4.993,-6.254 -4.993,-10.847 0,-3.232 0.852,-5.783 2.56,-7.655 1.706,-1.872 4.33,-3.405 7.872,-4.595 3.54,-1.191 8.042,-2.424 13.504,-3.699 6.314,-1.363 11.776,-3.023 16.384,-4.979 4.608,-1.956 8.148,-4.572 10.624,-7.846 2.474,-3.276 3.712,-7.633 3.712,-13.078 0,-4.339 -0.831,-8.103 -2.495,-11.294 -1.665,-3.19 -3.991,-5.828 -6.977,-7.912 -2.988,-2.084 -6.486,-3.616 -10.496,-4.593 -4.012,-0.977 -8.363,-1.466 -13.056,-1.466 -4.608,0 -9.11,0.491 -13.504,1.471 -4.396,0.98 -8.556,2.411 -12.48,4.289 -3.926,1.875 -7.596,4.223 -11.008,7.04 l 5.504,9.727 c 1.364,-1.452 3.136,-2.88 5.312,-4.288 2.176,-1.407 4.65,-2.71 7.424,-3.903 2.772,-1.197 5.781,-2.157 9.024,-2.88 3.242,-0.727 6.57,-1.089 9.984,-1.089 6.484,0 11.521,1.166 15.105,3.503 3.584,2.336 5.376,5.754 5.376,10.254 0,3.403 -1.005,6.126 -3.009,8.168 -2.006,2.042 -4.972,3.744 -8.896,5.105 -3.926,1.363 -8.704,2.725 -14.336,4.086 -6.144,1.532 -11.308,3.212 -15.488,5.042 -4.182,1.828 -7.318,4.233 -9.408,7.212 -2.092,2.979 -3.136,6.851 -3.136,11.616 0,5.786 1.408,10.678 4.224,14.678 2.816,4 6.698,7.02 11.648,9.064 4.948,2.042 10.538,3.064 16.768,3.064 4.096,0 7.914,-0.428 11.456,-1.279 3.54,-0.855 6.848,-2.048 9.92,-3.584 C 0,13.313 2.816,11.477 5.376,9.345 Z"
             style="fill:#ffffff;fill-opacity:1;fill-rule:nonzero;stroke:none"
             id="path106" /></g><g
           id="g108"
           transform="translate(1058.9922,83.6859)"><path
             d="m 0,0 c -0.94,-0.429 -2.221,-0.982 -3.841,-1.664 -1.622,-0.685 -3.5,-1.28 -5.632,-1.792 -2.133,-0.513 -4.395,-0.769 -6.784,-0.769 -2.731,0 -5.248,0.493 -7.552,1.473 -2.303,0.98 -4.139,2.516 -5.503,4.607 -1.367,2.09 -2.048,4.714 -2.048,7.873 v 44.927 h -9.088 v 8.832 h 9.088 V 85.76 h 11.263 V 63.487 H -5.12 V 54.655 H -20.097 V 13.184 c 0.17,-2.39 0.981,-4.161 2.433,-5.312 1.449,-1.152 3.155,-1.728 5.119,-1.728 2.219,0 4.267,0.383 6.145,1.152 1.876,0.767 3.114,1.321 3.712,1.664 z"
             style="fill:#ffffff;fill-opacity:1;fill-rule:nonzero;stroke:none"
             id="path110" /></g><g
           id="g112"
           transform="translate(1068.8467,107.3353)"><path
             d="M 0,0 V 39.838 H 11.264 V 2.2 c 0,-6.784 1.194,-11.87 3.584,-15.26 2.387,-3.392 5.929,-5.086 10.624,-5.086 3.072,0 6.036,0.654 8.896,1.966 2.858,1.31 5.44,3.193 7.743,5.644 2.305,2.452 4.097,5.37 5.376,8.754 v 41.62 h 11.265 v -53.659 c 0,-1.357 0.275,-2.353 0.832,-2.989 0.554,-0.635 1.472,-0.996 2.752,-1.08 v -8.704 c -1.28,-0.17 -2.284,-0.276 -3.008,-0.32 -0.726,-0.042 -1.431,-0.064 -2.112,-0.064 -2.134,0 -3.968,0.657 -5.504,1.972 -1.536,1.317 -2.349,2.948 -2.433,4.901 l -0.256,7.759 c -2.901,-4.922 -6.805,-8.74 -11.711,-11.456 -4.909,-2.716 -10.262,-4.072 -16.064,-4.072 -6.998,0 -12.288,2.354 -15.872,7.064 C 1.792,-16.102 0,-9.164 0,0"
             style="fill:#ffffff;fill-opacity:1;fill-rule:nonzero;stroke:none"
             id="path114" /></g><g
           id="g116"
           transform="translate(1196.8457,104.0111)"><path
             d="m 0,0 v 19.003 c -1.023,2.871 -2.688,5.468 -4.991,7.792 -2.305,2.321 -4.887,4.18 -7.744,5.573 -2.861,1.393 -5.697,2.09 -8.512,2.09 -3.328,0 -6.337,-0.697 -9.024,-2.09 -2.689,-1.393 -4.993,-3.252 -6.913,-5.573 -1.92,-2.324 -3.391,-4.963 -4.416,-7.918 -1.023,-2.956 -1.536,-6.04 -1.536,-9.248 0,-3.295 0.576,-6.418 1.729,-9.374 1.151,-2.956 2.771,-5.576 4.863,-7.857 2.091,-2.28 4.523,-4.053 7.297,-5.32 2.771,-1.267 5.779,-1.899 9.023,-1.899 2.048,0 4.161,0.38 6.336,1.139 2.176,0.76 4.244,1.815 6.208,3.166 1.962,1.353 3.626,2.937 4.992,4.752 C -1.323,-3.947 -0.428,-2.027 0,0 m -54.783,9.755 c 0,6.267 1.3,12.006 3.903,17.216 2.603,5.208 6.187,9.38 10.752,12.513 4.565,3.134 9.792,4.703 15.681,4.703 5.376,0 10.195,-1.409 14.464,-4.224 C -5.718,37.146 -2.39,33.732 0,29.723 V 70.171 H 11.265 V -10.47 c 0,-1.366 0.275,-2.368 0.832,-3.008 0.553,-0.639 1.471,-1.003 2.752,-1.087 v -8.705 c -2.134,-0.339 -3.798,-0.511 -4.993,-0.511 -2.219,0 -4.16,0.767 -5.824,2.303 -1.664,1.537 -2.496,3.243 -2.496,5.121 v 5.631 c -2.645,-4.267 -6.187,-7.637 -10.624,-10.112 -4.437,-2.474 -9.046,-3.712 -13.823,-3.712 -4.609,0 -8.855,0.912 -12.736,2.733 -3.884,1.82 -7.254,4.339 -10.113,7.559 -2.859,3.219 -5.078,6.882 -6.656,10.99 -1.579,4.109 -2.367,8.449 -2.367,13.023"
             style="fill:#ffffff;fill-opacity:1;fill-rule:nonzero;stroke:none"
             id="path118" /></g><path
           d="m 1226.926,147.558 h 11.264 V 80.742 h -11.264 z m 0,26.624 h 11.264 v -14.08 h -11.264 z"
           style="fill:#ffffff;fill-opacity:1;fill-rule:nonzero;stroke:none"
           id="path120" /><g
           id="g122"
           transform="translate(1263.4053,113.64)"><path
             d="m 0,0 c 0,-4.561 1.002,-8.7 3.008,-12.416 2.004,-3.717 4.672,-6.652 8,-8.805 3.328,-2.153 7.04,-3.229 11.137,-3.229 4.095,0 7.827,1.097 11.199,3.294 3.37,2.196 6.058,5.172 8.064,8.929 2.004,3.758 3.008,7.918 3.008,12.481 0,4.559 -1.004,8.697 -3.008,12.414 -2.006,3.716 -4.694,6.672 -8.064,8.867 -3.372,2.196 -7.104,3.294 -11.199,3.294 -4.097,0 -7.809,-1.119 -11.137,-3.357 -3.328,-2.239 -5.996,-5.214 -8,-8.93 C 1.002,8.825 0,4.644 0,0 m 22.145,-34.179 c -5.037,0 -9.601,0.912 -13.697,2.733 -4.095,1.82 -7.637,4.32 -10.624,7.496 -2.988,3.176 -5.292,6.838 -6.912,10.99 -1.622,4.149 -2.432,8.512 -2.432,13.086 0,4.657 0.81,9.062 2.432,13.214 1.62,4.149 3.924,7.813 6.912,10.989 2.987,3.177 6.548,5.675 10.688,7.496 4.138,1.82 8.682,2.733 13.633,2.733 5.033,0 9.599,-0.913 13.695,-2.733 4.097,-1.821 7.658,-4.319 10.688,-7.496 3.028,-3.176 5.354,-6.84 6.976,-10.989 1.62,-4.152 2.433,-8.557 2.433,-13.214 0,-4.574 -0.813,-8.937 -2.433,-13.086 -1.622,-4.152 -3.926,-7.814 -6.912,-10.99 -2.988,-3.176 -6.55,-5.676 -10.688,-7.496 -4.14,-1.821 -8.726,-2.733 -13.759,-2.733"
             style="fill:#ffffff;fill-opacity:1;fill-rule:nonzero;stroke:none"
             id="path124" /></g><g
           id="g126"
           transform="translate(1355.9492,79.4613)"><path
             d="m 0,0 c -5.548,0 -10.752,0.918 -15.616,2.752 -4.864,1.834 -9.046,4.586 -12.544,8.256 l 4.352,7.936 c 3.84,-3.584 7.68,-6.144 11.52,-7.679 3.84,-1.536 7.764,-2.305 11.776,-2.305 4.608,0 8.362,0.862 11.264,2.588 2.9,1.724 4.352,4.27 4.352,7.639 0,2.456 -0.748,4.275 -2.24,5.461 -1.494,1.186 -3.606,2.182 -6.336,2.986 -2.732,0.804 -5.974,1.717 -9.728,2.732 -4.608,1.355 -8.492,2.794 -11.648,4.319 -3.158,1.523 -5.548,3.429 -7.168,5.717 -1.622,2.288 -2.432,5.168 -2.432,8.64 0,4.234 1.108,7.812 3.328,10.736 2.218,2.922 5.268,5.146 9.152,6.67 3.882,1.525 8.298,2.288 13.248,2.288 4.948,0 9.428,-0.767 13.44,-2.303 4.01,-1.537 7.466,-3.799 10.368,-6.785 l -5.12,-7.808 c -2.646,2.73 -5.548,4.757 -8.704,6.08 -3.158,1.322 -6.7,1.984 -10.624,1.984 -2.304,0 -4.566,-0.276 -6.784,-0.826 -2.22,-0.55 -4.054,-1.521 -5.504,-2.918 -1.452,-1.395 -2.176,-3.364 -2.176,-5.902 0,-2.115 0.576,-3.785 1.728,-5.012 1.152,-1.227 2.858,-2.264 5.12,-3.109 2.26,-0.849 5.012,-1.779 8.256,-2.792 5.034,-1.441 9.408,-2.879 13.12,-4.317 3.712,-1.438 6.592,-3.299 8.64,-5.584 2.048,-2.284 3.072,-5.458 3.072,-9.517 0,-6.263 -2.39,-11.149 -7.168,-14.66 C 14.164,1.754 7.85,0 0,0"
             style="fill:#ffffff;fill-opacity:1;fill-rule:nonzero;stroke:none"
             id="path128" /></g></g></g><g
       id="g130"><g
         id="g132"
         clip-path="url(#clipPath136)"><g
           id="g138"
           transform="translate(86.0815,165.3333)"><path
             d="M 0,0 54.667,67.111 87.555,40.889 128.889,-71.556 c 0,0 -25.328,-11.994 -43.556,-30.222 -31.111,-31.111 -58.864,-50.666 -82.666,-50.666 -53.778,0 -77.778,32.888 -68,44.111 16.729,19.2 52.888,-3.889 64.444,0 l -2.222,-25 53.333,144 L 82.667,32 Z"
             style="fill:#ffffff;fill-opacity:1;fill-rule:nonzero;stroke:none"
             id="path140" /></g><g
           id="g142"
           transform="translate(116.7915,12.889)"><path
             d="M 0,0 C 0,0 37.382,14.725 81.29,53.333 107.068,76 144.401,76.889 155.068,57.778 162.053,45.262 144.845,13.777 108.401,0 Z"
             style="fill:#ffffff;fill-opacity:1;fill-rule:nonzero;stroke:none"
             id="path144" /></g><g
           id="g146"
           transform="translate(27.8589,103.9998)"><path
             d="m 0,0 c 0,0 56,217.778 236.445,117.333 0,0 -49.794,18.213 -106.963,4.297 L 112.204,134.166 86.223,104.593 C 54.854,85.995 23.293,54.174 0,0"
             style="fill:#ffffff;fill-opacity:1;fill-rule:nonzero;stroke:none"
             id="path148" /></g></g></g></g></svg>
