<?xml version="1.0" encoding="UTF-8" standalone="no"?>
<!-- Created with Inkscape (http://www.inkscape.org/) -->

<svg
   version="1.1"
   id="svg2"
   xml:space="preserve"
   width="714.66669"
   height="496.22266"
   viewBox="0 0 714.66669 496.22266"
   sodipodi:docname="spellwarelogo.ai"
   xmlns:inkscape="http://www.inkscape.org/namespaces/inkscape"
   xmlns:sodipodi="http://sodipodi.sourceforge.net/DTD/sodipodi-0.dtd"
   xmlns:xlink="http://www.w3.org/1999/xlink"
   xmlns="http://www.w3.org/2000/svg"
   xmlns:svg="http://www.w3.org/2000/svg"><defs
     id="defs6"><clipPath
       clipPathUnits="userSpaceOnUse"
       id="clipPath16"><path
         d="M 0,372.167 H 536 V 0 H 0 Z"
         id="path14" /></clipPath><clipPath
       clipPathUnits="userSpaceOnUse"
       id="clipPath24"><path
         d="m -232.753,385.5 h 978 V -84.6065 h -978 z"
         id="path22" /></clipPath><clipPath
       clipPathUnits="userSpaceOnUse"
       id="clipPath28"><path
         d="m -232.753,385.5 h 978 V -84.6064 h -978 z"
         id="path26" /></clipPath><mask
       maskUnits="userSpaceOnUse"
       x="0"
       y="0"
       width="1"
       height="1"
       id="mask30"><g
         id="g40"><g
           clip-path="url(#clipPath28)"
           id="g38"><g
             id="g36"><g
               transform="matrix(978,0,0,470.10648,-232.75314,-84.606371)"
               id="g34"></g></g></g></g></mask><mask
       maskUnits="userSpaceOnUse"
       x="0"
       y="0"
       width="1"
       height="1"
       id="mask42"></mask><clipPath
       clipPathUnits="userSpaceOnUse"
       id="clipPath66"><path
         d="M 0,372.167 H 536 V 0 H 0 Z"
         id="path64" /></clipPath><clipPath
       clipPathUnits="userSpaceOnUse"
       id="clipPath136"><path
         d="M 0,372.167 H 536 V 0 H 0 Z"
         id="path134" /></clipPath></defs><sodipodi:namedview
     id="namedview4"
     pagecolor="#ffffff"
     bordercolor="#666666"
     borderopacity="1.0"
     inkscape:pageshadow="2"
     inkscape:pageopacity="0.0"
     inkscape:pagecheckerboard="0" /><g
     id="g8"
     inkscape:groupmode="layer"
     inkscape:label="spellwarelogo"
     transform="matrix(1.3333333,0,0,-1.3333333,0,496.22267)"><g
       id="g10"><g
         id="g12"
         clip-path="url(#clipPath16)"><g
           id="g18"><g
             id="g20" /><g
             id="g58"><g
               clip-path="url(#clipPath24)"
               opacity="0.259995"
               id="g56"><g
                 id="g54"><g
                   id="g46" /><g
                   mask="url(#mask30)"
                   id="g52"><g
                     transform="matrix(978,0,0,470.10648,-232.75314,-84.606371)"
                     id="g50"></g></g></g></g></g></g></g></g><g
       id="g60"><g
         id="g62"
         clip-path="url(#clipPath66)"><g
           id="g68"
           transform="translate(43.7969,61.5247)"><path
             d="m 0,0 c -0.486,0.567 -1.135,1.114 -1.944,1.642 -0.812,0.526 -1.723,1.003 -2.736,1.428 -1.013,0.425 -2.118,0.769 -3.312,1.033 -1.196,0.263 -2.441,0.395 -3.737,0.395 -3.324,0 -5.774,-0.627 -7.355,-1.878 -1.58,-1.253 -2.37,-2.97 -2.37,-5.15 0,-1.534 0.405,-2.746 1.216,-3.635 0.81,-0.889 2.055,-1.616 3.738,-2.182 1.681,-0.565 3.818,-1.151 6.411,-1.757 2.998,-0.646 5.592,-1.434 7.779,-2.363 2.189,-0.929 3.87,-2.171 5.045,-3.725 1.175,-1.556 1.762,-3.625 1.762,-6.21 0,-2.061 -0.394,-3.848 -1.184,-5.363 -0.791,-1.514 -1.895,-2.766 -3.313,-3.756 -1.419,-0.99 -3.079,-1.717 -4.983,-2.181 -1.906,-0.464 -3.972,-0.696 -6.2,-0.696 -2.187,0 -4.325,0.233 -6.411,0.699 -2.088,0.465 -4.063,1.143 -5.927,2.036 -1.863,0.891 -3.606,2.005 -5.226,3.342 l 2.613,4.619 c 0.649,-0.69 1.489,-1.367 2.523,-2.036 1.033,-0.668 2.208,-1.286 3.525,-1.854 1.315,-0.567 2.744,-1.023 4.284,-1.367 1.54,-0.345 3.12,-0.517 4.741,-0.517 3.079,0 5.469,0.554 7.171,1.664 1.702,1.109 2.553,2.731 2.553,4.868 0,1.616 -0.476,2.909 -1.429,3.879 -0.952,0.968 -2.36,1.777 -4.223,2.423 -1.865,0.647 -4.133,1.294 -6.807,1.941 -2.917,0.727 -5.369,1.524 -7.353,2.393 -1.987,0.869 -3.476,2.01 -4.468,3.424 -0.993,1.415 -1.488,3.253 -1.488,5.516 0,2.748 0.668,5.07 2.004,6.97 1.338,1.899 3.181,3.333 5.532,4.303 2.348,0.97 5.004,1.454 7.961,1.454 1.945,0 3.757,-0.203 5.439,-0.607 C -4.487,8.347 -2.917,7.78 -1.459,7.051 0,6.321 1.337,5.449 2.553,4.438 Z"
             style="fill:#ffffff;fill-opacity:1;fill-rule:nonzero;stroke:none"
             id="path70" /></g><g
           id="g72"
           transform="translate(70.0518,31.4417)"><path
             d="m 0,0 c 1.58,0 3.008,0.33 4.285,0.992 1.276,0.66 2.37,1.543 3.281,2.647 0.913,1.102 1.611,2.355 2.097,3.759 0.486,1.404 0.73,2.847 0.73,4.331 0,1.564 -0.274,3.047 -0.821,4.452 -0.547,1.403 -1.317,2.645 -2.309,3.728 -0.993,1.083 -2.148,1.935 -3.464,2.557 -1.318,0.621 -2.746,0.932 -4.285,0.932 -0.973,0 -1.975,-0.18 -3.008,-0.541 -1.034,-0.36 -2.017,-0.87 -2.948,-1.53 -0.933,-0.661 -1.723,-1.411 -2.371,-2.252 -0.648,-0.841 -1.074,-1.741 -1.276,-2.701 V 7.386 C -9.481,6.023 -8.671,4.783 -7.658,3.662 -6.646,2.542 -5.47,1.65 -4.133,0.99 -2.796,0.329 -1.419,0 0,0 m 1.641,-4.619 c -2.593,0 -4.903,0.642 -6.928,1.931 -2.027,1.286 -3.627,2.915 -4.802,4.886 v -19.155 h -5.348 v 44.488 h 4.741 v -5.969 c 1.255,1.93 2.896,3.489 4.923,4.675 2.025,1.187 4.233,1.781 6.624,1.781 2.188,0 4.193,-0.443 6.016,-1.329 1.823,-0.884 3.404,-2.09 4.741,-3.619 1.337,-1.528 2.38,-3.267 3.13,-5.217 0.749,-1.951 1.124,-3.993 1.124,-6.124 0,-2.976 -0.597,-5.71 -1.793,-8.205 C 12.874,1.031 11.202,-0.95 9.056,-2.418 6.907,-3.887 4.437,-4.619 1.641,-4.619"
             style="fill:#ffffff;fill-opacity:1;fill-rule:nonzero;stroke:none"
             id="path74" /></g><g
           id="g76"
           transform="translate(95.8203,45.055)"><path
             d="m 0,0 h 21.636 c -0.163,2.042 -0.75,3.844 -1.763,5.406 -1.014,1.563 -2.31,2.783 -3.89,3.664 -1.58,0.882 -3.322,1.323 -5.226,1.323 C 8.893,10.393 7.171,9.952 5.591,9.07 4.011,8.189 2.725,6.969 1.731,5.406 0.738,3.844 0.161,2.042 0,0 m 10.695,-18.232 c -2.39,0 -4.567,0.432 -6.533,1.296 -1.965,0.865 -3.667,2.052 -5.104,3.56 -1.44,1.508 -2.553,3.246 -3.343,5.218 -0.79,1.971 -1.186,4.061 -1.186,6.274 0,2.976 0.689,5.69 2.067,8.144 1.377,2.453 3.292,4.424 5.743,5.911 2.451,1.488 5.258,2.233 8.418,2.233 3.2,0 5.986,-0.755 8.356,-2.263 2.37,-1.511 4.214,-3.482 5.532,-5.917 1.315,-2.435 1.974,-5.062 1.974,-7.879 0,-0.403 -0.011,-0.795 -0.03,-1.177 -0.021,-0.383 -0.052,-0.674 -0.091,-0.876 H 0.182 c 0.161,-2.043 0.739,-3.854 1.732,-5.437 0.992,-1.582 2.279,-2.824 3.859,-3.725 1.581,-0.901 3.283,-1.352 5.106,-1.352 1.944,0 3.777,0.487 5.5,1.459 1.722,0.973 2.906,2.248 3.555,3.828 l 4.619,-1.275 c -0.69,-1.541 -1.712,-2.918 -3.07,-4.133 -1.357,-1.216 -2.958,-2.168 -4.8,-2.856 -1.845,-0.689 -3.84,-1.033 -5.988,-1.033"
             style="fill:#ffffff;fill-opacity:1;fill-rule:nonzero;stroke:none"
             id="path78" /></g><g
           id="g80"
           transform="translate(128.5166,71.7962)"><path
             d="m 0,0 h 5.348 v -36.327 c 0,-1.75 0.244,-2.828 0.729,-3.235 0.486,-0.408 1.073,-0.611 1.763,-0.611 0.85,0 1.661,0.092 2.431,0.274 0.769,0.182 1.417,0.375 1.945,0.578 l 0.85,-4.376 c -0.891,-0.366 -1.944,-0.669 -3.16,-0.912 -1.216,-0.244 -2.29,-0.365 -3.22,-0.365 -2.068,0 -3.699,0.591 -4.893,1.769 C 0.597,-42.025 0,-40.377 0,-38.261 Z"
             style="fill:#ffffff;fill-opacity:1;fill-rule:nonzero;stroke:none"
             id="path82" /></g><g
           id="g84"
           transform="translate(145.8984,71.7962)"><path
             d="m 0,0 h 5.348 v -36.327 c 0,-1.75 0.243,-2.828 0.729,-3.235 0.486,-0.408 1.073,-0.611 1.763,-0.611 0.85,0 1.66,0.092 2.431,0.274 0.769,0.182 1.417,0.375 1.944,0.578 l 0.851,-4.376 c -0.891,-0.366 -1.945,-0.669 -3.16,-0.912 -1.216,-0.244 -2.29,-0.365 -3.221,-0.365 -2.067,0 -3.698,0.591 -4.892,1.769 C 0.597,-42.025 0,-40.377 0,-38.261 Z"
             style="fill:#ffffff;fill-opacity:1;fill-rule:nonzero;stroke:none"
             id="path86" /></g><g
           id="g88"
           transform="translate(201.751,58.973)"><path
             d="M 0,0 H 5.166 L -8.326,-31.543 h -4.68 l -6.139,14.865 -6.078,-14.865 h -4.678 L -43.394,0 h 5.105 l 10.94,-26.286 5.105,12.932 -5.349,13.292 h 4.681 l 3.767,-10.03 3.769,10.03 h 4.679 l -5.287,-13.292 5.105,-12.932 z"
             style="fill:#ffffff;fill-opacity:1;fill-rule:nonzero;stroke:none"
             id="path90" /></g><g
           id="g92"
           transform="translate(229.2832,34.3236)"><path
             d="M 0,0 C 0.486,0.562 0.87,1.133 1.154,1.715 1.437,2.296 1.58,2.788 1.58,3.188 V 7.1 c -1.257,0.481 -2.573,0.852 -3.95,1.113 -1.378,0.261 -2.735,0.391 -4.072,0.391 -2.715,0 -4.914,-0.532 -6.595,-1.594 -1.682,-1.064 -2.522,-2.517 -2.522,-4.363 0,-1.002 0.274,-1.976 0.821,-2.918 0.547,-0.943 1.357,-1.715 2.43,-2.317 1.074,-0.602 2.402,-0.902 3.982,-0.902 1.66,0 3.24,0.331 4.74,0.992 C -2.088,-1.836 -0.892,-1.003 0,0 m -20.664,2.223 c 0,2.013 0.577,3.755 1.732,5.224 1.155,1.471 2.745,2.609 4.771,3.413 2.025,0.806 4.376,1.208 7.05,1.208 1.418,0 2.917,-0.111 4.498,-0.334 1.58,-0.223 2.977,-0.557 4.193,-1.003 v 2.296 c 0,2.398 -0.729,4.285 -2.187,5.664 -1.459,1.379 -3.526,2.069 -6.201,2.069 -1.742,0 -3.413,-0.315 -5.013,-0.943 -1.601,-0.629 -3.292,-1.529 -5.075,-2.705 l -1.945,3.769 c 2.067,1.418 4.133,2.481 6.199,3.19 2.067,0.709 4.213,1.065 6.443,1.065 4.051,0 7.252,-1.115 9.602,-3.345 2.35,-2.23 3.526,-5.333 3.526,-9.309 V -0.833 c 0,-0.643 0.131,-1.115 0.394,-1.416 0.263,-0.302 0.699,-0.472 1.307,-0.512 V -6.894 C 8.103,-6.975 7.647,-7.035 7.263,-7.076 6.877,-7.115 6.563,-7.137 6.32,-7.137 c -1.257,0 -2.198,0.344 -2.826,1.033 -0.629,0.689 -0.982,1.418 -1.063,2.189 L 2.31,-1.91 c -1.379,-1.783 -3.182,-3.16 -5.41,-4.133 -2.228,-0.972 -4.436,-1.458 -6.625,-1.458 -2.107,0 -3.991,0.433 -5.652,1.298 -1.661,0.866 -2.957,2.033 -3.889,3.503 -0.933,1.47 -1.398,3.111 -1.398,4.923"
             style="fill:#ffffff;fill-opacity:1;fill-rule:nonzero;stroke:none"
             id="path94" /></g><g
           id="g96"
           transform="translate(261.5537,54.4749)"><path
             d="m 0,0 c -2.674,-0.04 -5.035,-0.72 -7.08,-2.036 -2.047,-1.317 -3.495,-3.13 -4.346,-5.44 v -19.569 h -5.347 V 4.498 h 4.983 v -7.172 c 1.094,2.188 2.542,3.96 4.345,5.319 1.802,1.356 3.697,2.116 5.683,2.278 h 1.033 c 0.283,0 0.526,-0.021 0.729,-0.061 z"
             style="fill:#ffffff;fill-opacity:1;fill-rule:nonzero;stroke:none"
             id="path98" /></g><g
           id="g100"
           transform="translate(269.4551,45.055)"><path
             d="m 0,0 h 21.636 c -0.162,2.042 -0.75,3.844 -1.762,5.406 -1.014,1.563 -2.31,2.783 -3.891,3.664 -1.58,0.882 -3.322,1.323 -5.226,1.323 C 8.893,10.393 7.171,9.952 5.591,9.07 4.011,8.189 2.725,6.969 1.731,5.406 0.738,3.844 0.161,2.042 0,0 m 10.696,-18.232 c -2.39,0 -4.568,0.432 -6.533,1.296 -1.966,0.865 -3.668,2.052 -5.105,3.56 -1.439,1.508 -2.553,3.246 -3.343,5.218 -0.79,1.971 -1.186,4.061 -1.186,6.274 0,2.976 0.689,5.69 2.068,8.144 1.376,2.453 3.291,4.424 5.743,5.911 2.45,1.488 5.257,2.233 8.417,2.233 3.2,0 5.986,-0.755 8.356,-2.263 2.371,-1.511 4.214,-3.482 5.532,-5.917 1.315,-2.435 1.975,-5.062 1.975,-7.879 0,-0.403 -0.011,-0.795 -0.031,-1.177 -0.021,-0.383 -0.051,-0.674 -0.091,-0.876 H 0.182 c 0.162,-2.043 0.739,-3.854 1.732,-5.437 0.992,-1.582 2.279,-2.824 3.859,-3.725 1.581,-0.901 3.283,-1.352 5.106,-1.352 1.944,0 3.777,0.487 5.5,1.459 1.722,0.973 2.907,2.248 3.556,3.828 l 4.618,-1.275 c -0.69,-1.541 -1.712,-2.918 -3.069,-4.133 -1.358,-1.216 -2.958,-2.168 -4.801,-2.856 -1.844,-0.689 -3.839,-1.033 -5.987,-1.033"
             style="fill:#ffffff;fill-opacity:1;fill-rule:nonzero;stroke:none"
             id="path102" /></g><g
           id="g104"
           transform="translate(343.5996,61.5247)"><path
             d="m 0,0 c -0.485,0.567 -1.135,1.114 -1.944,1.642 -0.812,0.526 -1.723,1.003 -2.736,1.428 -1.012,0.425 -2.117,0.769 -3.312,1.033 -1.196,0.263 -2.441,0.395 -3.737,0.395 -3.323,0 -5.774,-0.627 -7.354,-1.878 -1.58,-1.253 -2.37,-2.97 -2.37,-5.15 0,-1.534 0.404,-2.746 1.215,-3.635 0.81,-0.889 2.056,-1.616 3.738,-2.182 1.681,-0.565 3.818,-1.151 6.411,-1.757 2.998,-0.646 5.592,-1.434 7.779,-2.363 2.189,-0.929 3.87,-2.171 5.045,-3.725 1.175,-1.556 1.762,-3.625 1.762,-6.21 0,-2.061 -0.394,-3.848 -1.184,-5.363 -0.791,-1.514 -1.895,-2.766 -3.313,-3.756 -1.419,-0.99 -3.079,-1.717 -4.983,-2.181 -1.906,-0.464 -3.971,-0.696 -6.2,-0.696 -2.187,0 -4.325,0.233 -6.411,0.699 -2.088,0.465 -4.063,1.143 -5.926,2.036 -1.864,0.891 -3.607,2.005 -5.227,3.342 l 2.613,4.619 c 0.649,-0.69 1.489,-1.367 2.523,-2.036 1.033,-0.668 2.208,-1.286 3.525,-1.854 1.315,-0.567 2.744,-1.023 4.284,-1.367 1.54,-0.345 3.12,-0.517 4.741,-0.517 3.079,0 5.47,0.554 7.172,1.664 1.701,1.109 2.552,2.731 2.552,4.868 0,1.616 -0.476,2.909 -1.429,3.879 -0.952,0.968 -2.36,1.777 -4.223,2.423 -1.864,0.647 -4.133,1.294 -6.807,1.941 -2.917,0.727 -5.369,1.524 -7.353,2.393 -1.986,0.869 -3.475,2.01 -4.468,3.424 -0.993,1.415 -1.488,3.253 -1.488,5.516 0,2.748 0.668,5.07 2.004,6.97 1.338,1.899 3.181,3.333 5.532,4.303 2.349,0.97 5.004,1.454 7.961,1.454 1.945,0 3.757,-0.203 5.439,-0.607 C -4.487,8.347 -2.917,7.78 -1.458,7.051 0,6.321 1.338,5.449 2.553,4.438 Z"
             style="fill:#ffffff;fill-opacity:1;fill-rule:nonzero;stroke:none"
             id="path106" /></g><g
           id="g108"
           transform="translate(370.2197,28.8284)"><path
             d="m 0,0 c -0.446,-0.204 -1.055,-0.467 -1.823,-0.79 -0.771,-0.325 -1.662,-0.608 -2.675,-0.852 -1.013,-0.243 -2.087,-0.364 -3.221,-0.364 -1.297,0 -2.492,0.234 -3.586,0.699 -1.093,0.465 -1.965,1.195 -2.613,2.188 -0.648,0.992 -0.972,2.238 -0.972,3.737 V 25.95 h -4.315 v 4.195 h 4.315 V 40.72 h 5.348 V 30.145 h 7.111 V 25.95 H -9.542 V 6.26 c 0.081,-1.135 0.466,-1.976 1.155,-2.523 0.688,-0.547 1.498,-0.82 2.431,-0.82 1.053,0 2.025,0.182 2.917,0.547 0.891,0.364 1.478,0.627 1.763,0.79 z"
             style="fill:#ffffff;fill-opacity:1;fill-rule:nonzero;stroke:none"
             id="path110" /></g><g
           id="g112"
           transform="translate(374.8984,40.057)"><path
             d="M 0,0 V 18.916 H 5.349 V 1.045 c 0,-3.222 0.567,-5.636 1.701,-7.246 1.134,-1.611 2.815,-2.414 5.045,-2.414 1.459,0 2.866,0.309 4.223,0.932 1.358,0.622 2.583,1.517 3.677,2.68 1.095,1.165 1.945,2.55 2.553,4.157 v 19.762 h 5.348 V -6.562 c 0,-0.644 0.131,-1.118 0.396,-1.419 0.263,-0.302 0.698,-0.473 1.307,-0.513 v -4.133 c -0.609,-0.081 -1.085,-0.131 -1.429,-0.152 -0.345,-0.02 -0.679,-0.031 -1.003,-0.031 -1.013,0 -1.884,0.313 -2.613,0.937 -0.73,0.625 -1.116,1.4 -1.156,2.327 l -0.121,3.685 c -1.378,-2.337 -3.231,-4.151 -5.56,-5.44 -2.331,-1.29 -4.873,-1.933 -7.628,-1.933 -3.322,0 -5.834,1.117 -7.536,3.353 C 0.852,-7.646 0,-4.352 0,0"
             style="fill:#ffffff;fill-opacity:1;fill-rule:nonzero;stroke:none"
             id="path114" /></g><g
           id="g116"
           transform="translate(435.6738,38.4788)"><path
             d="m 0,0 v 9.022 c -0.485,1.364 -1.275,2.597 -2.369,3.701 -1.095,1.101 -2.32,1.984 -3.678,2.645 -1.357,0.662 -2.704,0.993 -4.041,0.993 -1.58,0 -3.009,-0.331 -4.285,-0.993 -1.276,-0.661 -2.37,-1.544 -3.282,-2.645 -0.911,-1.104 -1.611,-2.357 -2.097,-3.76 -0.485,-1.403 -0.729,-2.868 -0.729,-4.392 0,-1.564 0.274,-3.047 0.821,-4.45 0.547,-1.403 1.315,-2.647 2.308,-3.73 0.994,-1.083 2.148,-1.925 3.465,-2.527 1.317,-0.601 2.744,-0.901 4.284,-0.901 0.973,0 1.976,0.18 3.009,0.541 1.033,0.36 2.016,0.861 2.948,1.503 0.931,0.642 1.721,1.394 2.371,2.257 C -0.628,-1.874 -0.203,-0.963 0,0 m -26.012,4.632 c 0,2.975 0.617,5.7 1.854,8.174 1.236,2.472 2.937,4.454 5.105,5.941 2.167,1.488 4.65,2.233 7.446,2.233 2.552,0 4.84,-0.668 6.867,-2.005 2.025,-1.337 3.605,-2.958 4.74,-4.863 V 33.317 H 5.349 V -4.972 c 0,-0.648 0.13,-1.124 0.395,-1.427 0.263,-0.304 0.698,-0.477 1.307,-0.517 v -4.133 c -1.014,-0.161 -1.804,-0.243 -2.37,-0.243 -1.055,0 -1.976,0.364 -2.766,1.094 -0.79,0.729 -1.186,1.54 -1.186,2.431 v 2.674 c -1.255,-2.026 -2.937,-3.626 -5.043,-4.802 -2.108,-1.173 -4.295,-1.761 -6.564,-1.761 -2.188,0 -4.204,0.432 -6.048,1.297 -1.844,0.864 -3.444,2.06 -4.801,3.589 -1.358,1.529 -2.411,3.268 -3.161,5.218 -0.749,1.951 -1.124,4.012 -1.124,6.184"
             style="fill:#ffffff;fill-opacity:1;fill-rule:nonzero;stroke:none"
             id="path118" /></g><path
           d="m 449.956,59.156 h 5.349 V 27.43 h -5.349 z m 0,12.64 h 5.349 v -6.685 h -5.349 z"
           style="fill:#ffffff;fill-opacity:1;fill-rule:nonzero;stroke:none"
           id="path120" /><g
           id="g122"
           transform="translate(467.2773,43.0501)"><path
             d="m 0,0 c 0,-2.165 0.476,-4.131 1.428,-5.895 0.952,-1.764 2.218,-3.159 3.799,-4.18 1.58,-1.023 3.342,-1.533 5.288,-1.533 1.944,0 3.715,0.52 5.317,1.563 1.6,1.043 2.877,2.456 3.829,4.24 0.951,1.784 1.428,3.76 1.428,5.926 0,2.165 -0.477,4.13 -1.428,5.895 -0.952,1.763 -2.229,3.168 -3.829,4.21 -1.602,1.043 -3.373,1.564 -5.317,1.564 -1.946,0 -3.708,-0.532 -5.288,-1.595 C 3.646,9.133 2.38,7.72 1.428,5.955 0.476,4.19 0,2.205 0,0 m 10.515,-16.228 c -2.392,0 -4.559,0.433 -6.503,1.297 -1.946,0.865 -3.627,2.052 -5.045,3.56 -1.419,1.508 -2.513,3.246 -3.282,5.218 -0.77,1.97 -1.155,4.042 -1.155,6.214 0,2.21 0.385,4.301 1.155,6.273 0.769,1.971 1.863,3.71 3.282,5.218 1.418,1.509 3.109,2.695 5.074,3.559 1.966,0.865 4.123,1.298 6.474,1.298 2.389,0 4.557,-0.433 6.502,-1.298 1.945,-0.864 3.636,-2.05 5.075,-3.559 1.437,-1.508 2.542,-3.247 3.312,-5.218 0.77,-1.972 1.156,-4.063 1.156,-6.273 0,-2.172 -0.386,-4.244 -1.156,-6.214 -0.77,-1.972 -1.864,-3.71 -3.282,-5.218 -1.418,-1.508 -3.109,-2.695 -5.074,-3.56 -1.966,-0.864 -4.144,-1.297 -6.533,-1.297"
             style="fill:#ffffff;fill-opacity:1;fill-rule:nonzero;stroke:none"
             id="path124" /></g><g
           id="g126"
           transform="translate(511.2178,26.8226)"><path
             d="m 0,0 c -2.634,0 -5.104,0.436 -7.414,1.307 -2.31,0.87 -4.296,2.176 -5.956,3.92 l 2.066,3.767 c 1.824,-1.701 3.647,-2.917 5.47,-3.645 1.823,-0.73 3.687,-1.095 5.592,-1.095 2.187,0 3.97,0.409 5.347,1.228 1.377,0.82 2.067,2.029 2.067,3.627 0,1.166 -0.355,2.031 -1.064,2.594 -0.709,0.563 -1.712,1.036 -3.008,1.417 -1.297,0.383 -2.836,0.816 -4.62,1.298 -2.187,0.643 -4.032,1.326 -5.53,2.05 -1.499,0.723 -2.635,1.629 -3.403,2.715 -0.77,1.087 -1.155,2.454 -1.155,4.102 0,2.011 0.526,3.71 1.581,5.098 1.052,1.388 2.501,2.443 4.345,3.167 1.843,0.723 3.94,1.087 6.29,1.087 2.349,0 4.477,-0.366 6.381,-1.094 1.905,-0.73 3.545,-1.805 4.923,-3.222 L 9.481,24.613 c -1.255,1.297 -2.634,2.259 -4.132,2.888 -1.499,0.627 -3.181,0.941 -5.045,0.941 -1.094,0 -2.167,-0.13 -3.221,-0.391 -1.054,-0.262 -1.925,-0.723 -2.613,-1.386 -0.69,-0.663 -1.033,-1.598 -1.033,-2.803 0,-1.004 0.273,-1.797 0.82,-2.379 0.547,-0.583 1.357,-1.075 2.431,-1.476 1.073,-0.403 2.379,-0.845 3.92,-1.326 2.39,-0.684 4.467,-1.368 6.23,-2.049 1.763,-0.684 3.13,-1.568 4.102,-2.652 0.972,-1.084 1.458,-2.591 1.458,-4.519 C 12.398,6.487 11.264,4.168 8.995,2.5 6.726,0.832 3.728,0 0,0"
             style="fill:#ffffff;fill-opacity:1;fill-rule:nonzero;stroke:none"
             id="path128" /></g></g></g><g
       id="g130"><g
         id="g132"
         clip-path="url(#clipPath136)"><g
           id="g138"
           transform="translate(207.2793,249.5013)"><path
             d="M 0,0 54.667,67.111 87.556,40.889 128.889,-71.556 c 0,0 -25.328,-11.994 -43.556,-30.222 -31.11,-31.111 -58.864,-50.666 -82.666,-50.666 -53.778,0 -77.778,32.888 -68,44.111 16.729,19.2 52.889,-3.89 64.444,0 l -2.222,-25 53.334,144 L 82.667,32 Z"
             style="fill:#ffffff;fill-opacity:1;fill-rule:nonzero;stroke:none"
             id="path140" /></g><g
           id="g142"
           transform="translate(237.9893,97.057)"><path
             d="M 0,0 C 0,0 37.383,14.725 81.29,53.333 107.067,76 144.401,76.889 155.067,57.777 162.054,45.262 144.846,13.777 108.401,0 Z"
             style="fill:#ffffff;fill-opacity:1;fill-rule:nonzero;stroke:none"
             id="path144" /></g><g
           id="g146"
           transform="translate(149.0566,188.1683)"><path
             d="m 0,0 c 0,0 56,217.777 236.445,117.333 0,0 -49.794,18.212 -106.963,4.296 L 112.204,134.166 86.223,104.592 C 54.854,85.994 23.294,54.173 0,0"
             style="fill:#ffffff;fill-opacity:1;fill-rule:nonzero;stroke:none"
             id="path148" /></g></g></g></g></svg>
