<svg id="hover" xmlns="http://www.w3.org/2000/svg" viewBox="0 0 500 500"><defs><style>.cls-1{fill:#2e5644;}.cls-2{fill:#409873;}.cls-3,.cls-5{fill:#52c18e;}.cls-4{fill:#de1651;}.cls-5{opacity:0;}</style></defs><path class="cls-1" d="M350.77,346.15q0-50.68.07-101.38L249.9,303.11q0,50.58,0,101.16Z"/><path class="cls-2" d="M249.9,303.11,149.16,244.77V346q50.4,29.12,100.79,58.24Q249.94,353.69,249.9,303.11Z"/><path class="cls-3" d="M350.84,244.77,250,186.55,149.16,244.77,249.9,303.11Z"/><path class="cls-2" d="M311.28,267.62,210.42,209.21l-17.55,10.3,100.87,58.27Z"/><path class="cls-4" d="M219.62,349.53v-2.18a2.62,2.62,0,0,0-1-1.86q-9.06-7.49-9.16-10.15c0-.81.59-1.5,4.15-1.37,3.19.12,8.3.89,15.51,4.19.71.41,1.29.16,1.29-.55l0-6a2.66,2.66,0,0,0-1.28-2l-17.63-10.14L193.32,309c-.71-.41-1.29-.17-1.28.54l0,10.39a2.65,2.65,0,0,0,1.28,2h0c1.08,1,2.73,2.67,3,4.07.42,2.19-2.57,3.34-7.88,2.09-.71-.4-1.28-.16-1.28.55v2.19a2.64,2.64,0,0,0,1.29,2l29.85,17.18C219.05,350.49,219.63,350.24,219.62,349.53Z"/><path class="cls-4" d="M188.91,306.47l-3.85-2.22-14.58-8.4c-.48-.27-.86-.11-.86.37v.3a1.61,1.61,0,0,0,.42,1v0l0,.05L182.26,311c.05.05.09.11.15.16h0a2.14,2.14,0,0,0,.51.4l6,3.45c.71.41,1.28.17,1.28-.54v-6A2.66,2.66,0,0,0,188.91,306.47Z"/><path class="cls-4" d="M320.36,330.39v-2.22c0-.63-.46-.9-1.05-.67q-9.22,3-9.33.42c0-.79.59-2.21,4.22-6.27a92,92,0,0,1,15.81-14,2.71,2.71,0,0,0,1.3-2.06v-6.1c0-.72-.59-1-1.31-.55l-18,10.41-18.47,10.7a2.7,2.7,0,0,0-1.3,2.06l0,10.55c0,.72.59,1,1.31.55h0c1.1-.27,2.78-.49,3.05.62.43,1.73-2.62,6.42-8,11.4a2.7,2.7,0,0,0-1.31,2.06v2.23c0,.72.58,1,1.31.54l30.41-17.61A2.71,2.71,0,0,0,320.36,330.39Z"/><path class="cls-4" d="M289.07,322.66l-3.92,2.27-14.85,8.59a1.82,1.82,0,0,0-.87,1.38v.3c0,.32.17.5.42.5h.07l12.38-.6h.16a1.32,1.32,0,0,0,.52-.19l6.1-3.53a2.73,2.73,0,0,0,1.31-2.06v-6.1C290.38,322.49,289.79,322.24,289.07,322.66Z"/><rect class="cls-5" x="238.34" y="95.73" width="48.99" height="89.34"/></svg>