<svg id="no_hover" xmlns="http://www.w3.org/2000/svg" viewBox="0 0 500 500"><defs><style>.cls-1{fill:#2e5644;}.cls-2{fill:#409873;}.cls-3{fill:#52c18e;}.cls-4{fill:#6cd3a0;}.cls-5{fill:#de1651;}.cls-6{fill:#2d2d2d;}.cls-7{fill:#212121;}.cls-8{fill:#fff;}.cls-9{fill:#959691;}</style></defs><path class="cls-1" d="M350.87,346.15q0-50.68.07-101.38L250,303.11q0,50.58.05,101.16Z"/><path class="cls-2" d="M250,303.11,149.25,244.77q0,50.62,0,101.26l100.79,58.24Q250,353.69,250,303.11Z"/><path class="cls-2" d="M250,303.11V186.69L149.25,244.77Z"/><path class="cls-3" d="M350.94,244.77,394.78,189,294,130.86,250,186.69Z"/><path class="cls-3" d="M191.24,302.07l58.76,1L149.25,244.77l-57.13,0Z"/><path class="cls-3" d="M149.25,244.77,92.12,212,193,153.58l57,33.11Z"/><path class="cls-4" d="M350.94,244.77,250,303.11V186.69Z"/><path class="cls-5" d="M219.72,349.53v-2.18a2.66,2.66,0,0,0-1-1.86q-9.06-7.49-9.16-10.15c0-.81.58-1.5,4.15-1.37,3.19.12,8.3.89,15.51,4.19.71.41,1.28.16,1.28-.55v-6a2.69,2.69,0,0,0-1.28-2l-17.64-10.14L193.41,309c-.7-.41-1.28-.17-1.28.54l0,10.39a2.69,2.69,0,0,0,1.29,2h0c1.08,1,2.72,2.67,3,4.07.42,2.19-2.58,3.34-7.88,2.09-.71-.4-1.29-.16-1.28.55v2.19a2.64,2.64,0,0,0,1.29,2l29.85,17.18C219.15,350.49,219.72,350.24,219.72,349.53Z"/><path class="cls-5" d="M189,306.47l-3.85-2.22-14.58-8.4c-.47-.27-.85-.11-.85.37v.3a1.61,1.61,0,0,0,.42,1v0l0,.05q6.08,6.72,12.16,13.45l.14.16h0a2.36,2.36,0,0,0,.51.4l6,3.45c.71.41,1.29.17,1.29-.54v-6A2.68,2.68,0,0,0,189,306.47Z"/><path class="cls-5" d="M320.46,330.4v-2.23c0-.63-.45-.9-1-.67q-9.23,3-9.33.43c0-.8.59-2.22,4.22-6.28a91.86,91.86,0,0,1,15.8-14,2.7,2.7,0,0,0,1.31-2.06v-6.1c0-.72-.59-1-1.31-.54l-18,10.4-18.47,10.7a2.71,2.71,0,0,0-1.3,2.06l0,10.56c0,.72.59,1,1.31.54h0c1.09-.26,2.77-.49,3.05.62.43,1.73-2.62,6.42-8,11.4a2.71,2.71,0,0,0-1.3,2.06v2.23c0,.72.59,1,1.31.55l30.41-17.62A2.7,2.7,0,0,0,320.46,330.4Z"/><path class="cls-5" d="M289.17,322.66l-3.92,2.27-14.85,8.59a1.82,1.82,0,0,0-.87,1.38v.31a.44.44,0,0,0,.42.5H270l12.38-.6h.16a1.38,1.38,0,0,0,.52-.19l6.1-3.53a2.73,2.73,0,0,0,1.31-2.06v-6.1C290.48,322.49,289.89,322.24,289.17,322.66Z"/><path class="cls-3" d="M407.88,277.81l-56.94-33L250,303.11l54,34.51Z"/><path class="cls-3" d="M245.52,300.52l-91.83-53.19-15,8.13,66.06,43.13,36.89,3Z"/><path class="cls-1" d="M178.58,134.58h0v97.91l69.64,40.2,1.78,1V173.43Z"/><path class="cls-2" d="M321.42,134.58h0v97.91l-69.64,40.2-1.78,1V173.43Z"/><polygon class="cls-6" points="242.07 261.9 183.5 228.08 183.5 145.74 242.07 179.56 242.07 261.9"/><path class="cls-7" d="M243.57,260.76l-1.5,1.14V179.56L183.5,145.74,185,144.6l58.56,33.82Z"/><polygon class="cls-8" points="236.97 252.57 188.61 224.65 188.61 153.58 236.97 181.51 236.97 252.57"/><path class="cls-5" d="M216.26,237.89v-.38a.48.48,0,0,0-.18-.33c-1.07-.89-1.61-1.48-1.62-1.8,0-.14.1-.27.73-.24a7.3,7.3,0,0,1,2.75.74c.13.07.23,0,.23-.1v-1.06a.49.49,0,0,0-.22-.36l-3.13-1.79-3.21-1.85c-.12-.07-.22,0-.22.1v1.83a.46.46,0,0,0,.23.36h0a1.61,1.61,0,0,1,.53.72c.08.38-.45.59-1.39.37-.13-.08-.23,0-.23.09v.39a.46.46,0,0,0,.23.36l5.29,3C216.16,238.06,216.26,238,216.26,237.89Z"/><path class="cls-5" d="M210.82,230.27l-.68-.39-2.58-1.49c-.08,0-.15,0-.15.06v.06a.31.31,0,0,0,.07.17h0l2.16,2.38,0,0h0a.23.23,0,0,0,.1.07l1.06.61c.12.08.22,0,.22-.09v-1.06A.46.46,0,0,0,210.82,230.27Z"/><path class="cls-5" d="M231.47,191.8a1.21,1.21,0,0,1-.61-.16l-37-21.35a1.21,1.21,0,0,1,1.21-2.09l37,21.35a1.21,1.21,0,0,1-.6,2.25Z"/><path class="cls-5" d="M231.47,197.67a1.21,1.21,0,0,1-.61-.16l-37-21.35a1.21,1.21,0,0,1,1.21-2.1l37,21.35a1.21,1.21,0,0,1-.6,2.26Z"/><path class="cls-5" d="M231.47,203.54a1.21,1.21,0,0,1-.61-.16l-37-21.36a1.21,1.21,0,0,1,1.21-2.09l37,21.35a1.21,1.21,0,0,1-.6,2.26Z"/><path class="cls-5" d="M231.47,209.41a1.22,1.22,0,0,1-.61-.17l-37-21.35a1.21,1.21,0,1,1,1.21-2.09l37,21.35a1.21,1.21,0,0,1-.6,2.26Z"/><path class="cls-5" d="M231.47,215.27a1.21,1.21,0,0,1-.61-.16l-37-21.35a1.21,1.21,0,1,1,1.21-2.09l37,21.35a1.21,1.21,0,0,1-.6,2.25Z"/><path class="cls-5" d="M231.47,221.14a1.21,1.21,0,0,1-.61-.16l-37-21.35a1.21,1.21,0,0,1,1.21-2.1l37,21.35a1.21,1.21,0,0,1-.6,2.26Z"/><path class="cls-5" d="M231.47,227a1.21,1.21,0,0,1-.61-.16l-37-21.36a1.21,1.21,0,0,1,1.21-2.09l37,21.35a1.21,1.21,0,0,1-.6,2.26Z"/><path class="cls-5" d="M208.7,219.73a1.21,1.21,0,0,1-.61-.16l-14.21-8.21a1.21,1.21,0,0,1,1.21-2.09l14.21,8.2a1.21,1.21,0,0,1-.6,2.26Z"/><path class="cls-9" d="M225.77,177.84a1.35,1.35,0,0,1-.66-.2l-24.63-14.22a2.37,2.37,0,0,1-1.15-1.83V160a1.78,1.78,0,0,1,.81-1.64,2.34,2.34,0,0,1,2.31.23L223.86,171a5.64,5.64,0,0,1,2.76,4.37v1.59a.84.84,0,0,1-.85.92Zm-.3-.83c.21.12.33.11.37.09a.24.24,0,0,0,0-.18v-1.59a5,5,0,0,0-2.39-3.74l-21.41-12.37a1.65,1.65,0,0,0-1.58-.23,1.11,1.11,0,0,0-.45,1v1.59a1.66,1.66,0,0,0,.78,1.2Z"/><polygon class="cls-6" points="257.93 262.3 316.5 228.48 316.5 146.14 257.93 179.96 257.93 262.3"/><path class="cls-7" d="M256.43,261.16l1.5,1.14V180l58.57-33.81L315,145l-58.56,33.82Z"/><polygon class="cls-8" points="263.03 252.97 311.39 225.05 311.39 153.98 263.03 181.91 263.03 252.97"/><path class="cls-5" d="M283.74,238.29v-.39a.46.46,0,0,1,.18-.32q1.6-1.34,1.62-1.8c0-.14-.1-.27-.73-.24a7.11,7.11,0,0,0-2.75.74c-.13.07-.23,0-.23-.1v-1.06a.47.47,0,0,1,.22-.36l3.13-1.79,3.21-1.85c.12-.07.22,0,.22.1v1.83a.46.46,0,0,1-.23.36h0a1.73,1.73,0,0,0-.53.72c-.08.39.45.6,1.39.37.13-.07.23,0,.23.1V235a.46.46,0,0,1-.23.36l-5.29,3C283.84,238.46,283.74,238.42,283.74,238.29Z"/><path class="cls-5" d="M289.18,230.67l.68-.4,2.58-1.48c.08,0,.15,0,.15.06v.06a.31.31,0,0,1-.07.17h0l-2.16,2.38,0,0h0l-.1.07-1.06.61c-.12.08-.22,0-.22-.09V231A.46.46,0,0,1,289.18,230.67Z"/><path class="cls-5" d="M268.53,192.2a1.21,1.21,0,0,0,.61-.16l37-21.35a1.21,1.21,0,0,0-1.21-2.1l-37,21.36a1.21,1.21,0,0,0,.6,2.25Z"/><path class="cls-5" d="M268.53,198.07a1.21,1.21,0,0,0,.61-.16l37-21.35a1.21,1.21,0,0,0-1.21-2.1l-37,21.35a1.21,1.21,0,0,0,.6,2.26Z"/><path class="cls-5" d="M268.53,203.94a1.21,1.21,0,0,0,.61-.16l37-21.36a1.21,1.21,0,0,0-1.21-2.09l-37,21.35a1.21,1.21,0,0,0,.6,2.26Z"/><path class="cls-5" d="M268.53,209.81a1.22,1.22,0,0,0,.61-.17l37-21.35a1.21,1.21,0,0,0-1.21-2.09l-37,21.35a1.21,1.21,0,0,0,.6,2.26Z"/><path class="cls-5" d="M268.53,215.67a1.21,1.21,0,0,0,.61-.16l37-21.35a1.21,1.21,0,0,0-1.21-2.1l-37,21.36a1.21,1.21,0,0,0,.6,2.25Z"/><path class="cls-5" d="M268.53,221.54a1.21,1.21,0,0,0,.61-.16l37-21.35a1.21,1.21,0,0,0-1.21-2.1l-37,21.35a1.21,1.21,0,0,0,.6,2.26Z"/><path class="cls-5" d="M268.53,227.41a1.21,1.21,0,0,0,.61-.16l37-21.36a1.21,1.21,0,0,0-1.21-2.09l-37,21.35a1.21,1.21,0,0,0,.6,2.26Z"/><path class="cls-5" d="M291.3,220.13a1.21,1.21,0,0,0,.61-.16l14.21-8.21a1.21,1.21,0,0,0-1.21-2.09l-14.21,8.2a1.21,1.21,0,0,0,.6,2.26Z"/><path class="cls-9" d="M273.8,178.13a.89.89,0,0,1-.42-.81v-1.59a5.64,5.64,0,0,1,2.76-4.37L297.55,159a2.34,2.34,0,0,1,2.31-.23,1.78,1.78,0,0,1,.81,1.63V162a2.38,2.38,0,0,1-1.15,1.83L274.89,178a1.35,1.35,0,0,1-.66.2A.89.89,0,0,1,273.8,178.13Zm25.36-14.94a1.66,1.66,0,0,0,.78-1.2v-1.6a1.1,1.1,0,0,0-.45-1,1.65,1.65,0,0,0-1.58.23L276.5,172a5,5,0,0,0-2.39,3.75v1.59a.24.24,0,0,0,.05.18s.16,0,.37-.09Z"/><path class="cls-4" d="M321.42,134.58,250,95.73l-71.42,38.85h0L250,173.43l71.42-38.85h0Z"/><polygon class="cls-6" points="250 166.07 189.86 133.65 250 101.22 310.14 133.65 250 166.07"/><polygon class="cls-8" points="250 160.42 200.34 133.65 250 106.87 299.67 133.65 250 160.42"/><path class="cls-9" d="M285.1,128.89a2.79,2.79,0,0,1-.87-.26L258.94,115c-.66-.35-.65-.92,0-1.28l1.63-.88a7.86,7.86,0,0,1,6.49,0l22,11.85c1.58.86,1.57,2.21,0,3.07l-1.64.88a3.57,3.57,0,0,1-1.5.35A4.27,4.27,0,0,1,285.1,128.89Zm.36-.53a1.08,1.08,0,0,0,.5.14.7.7,0,0,0,.28-.09l1.63-.88c1.32-.71,1.31-1.92,0-2.63l-22-11.86a4.7,4.7,0,0,0-2.33-.5,4.1,4.1,0,0,0-1.75.46l-1.64.88c-.41.22-.4.62,0,.85Z"/><path class="cls-5" d="M231,147.74l.4-.22c.11-.06.13-.15,0-.22-.82-.74-1.08-1.2-.78-1.37.14-.08.44-.13,1.44,0a16.07,16.07,0,0,1,3.69,1.06.53.53,0,0,0,.46,0l1.09-.59c.13-.07.13-.18,0-.25l-3.21-1.73-3.31-1.77a.53.53,0,0,0-.46,0l-1.89,1c-.12.07-.12.18,0,.25h0c.13.14.3.37.12.52a4.11,4.11,0,0,1-2.64-.12.55.55,0,0,0-.47,0l-.39.22c-.13.07-.13.18,0,.25l5.44,2.92A.53.53,0,0,0,231,147.74Z"/><path class="cls-5" d="M230,142.25l-.7-.38-2.65-1.43a.42.42,0,0,0-.31,0l-.06,0a.09.09,0,0,0-.06.11h0l1,1.83v0h0l.08.06,1.09.59a.61.61,0,0,0,.46,0l1.09-.59C230.14,142.43,230.14,142.32,230,142.25Z"/><path class="cls-5" d="M281.18,138a2.7,2.7,0,0,1-1.29-.29l-37.47-20.2c-.72-.38-.72-1,0-1.39a3,3,0,0,1,2.59,0l37.47,20.2c.71.38.71,1,0,1.39A2.74,2.74,0,0,1,281.18,138Z"/><path class="cls-5" d="M275.16,141.27a2.86,2.86,0,0,1-1.3-.29l-37.47-20.2c-.71-.38-.71-1,0-1.39a3,3,0,0,1,2.59,0l37.47,20.19c.72.39.72,1,0,1.4A2.82,2.82,0,0,1,275.16,141.27Z"/><path class="cls-5" d="M269.13,144.52a2.82,2.82,0,0,1-1.29-.29L230.37,124c-.72-.39-.72-1,0-1.4a3.08,3.08,0,0,1,2.59,0l37.47,20.2c.71.39.71,1,0,1.4A2.86,2.86,0,0,1,269.13,144.52Z"/><path class="cls-5" d="M237.26,133.83a2.67,2.67,0,0,1-1.29-.29l-11.63-6.26c-.71-.39-.71-1,0-1.4a3.08,3.08,0,0,1,2.59,0l11.63,6.27c.71.38.71,1,0,1.39A2.74,2.74,0,0,1,237.26,133.83Z"/><path class="cls-7" d="M189.86,133.65V135l60.17,33,60.14-31.74,0-2.55L250,166.07Z"/></svg>