<svg id="hover" xmlns="http://www.w3.org/2000/svg" viewBox="0 0 500 500"><defs><style>.cls-1{fill:#2e5644;}.cls-2{fill:#409873;}.cls-3,.cls-5{fill:#52c18e;}.cls-4{fill:#de1651;}.cls-5{opacity:0;}</style></defs><path class="cls-1" d="M389.29,382.31q.06-70.06.1-140.14L249.86,322.82q0,69.92.08,139.82Z"/><path class="cls-2" d="M249.86,322.82,110.61,242.18q0,70,0,140l139.32,80.5Q249.9,392.73,249.86,322.82Z"/><path class="cls-3" d="M389.39,242.17,250,161.7,110.61,242.18l139.25,80.64Z"/><path class="cls-2" d="M334.71,273.76,195.29,193,171,207.26,310.46,287.8Z"/><path class="cls-4" d="M208,387v-3a3.63,3.63,0,0,0-1.42-2.56q-12.53-10.35-12.66-14c0-1.12.8-2.08,5.73-1.89,4.42.16,11.47,1.23,21.44,5.78,1,.57,1.78.23,1.78-.75l0-8.29a3.7,3.7,0,0,0-1.78-2.8l-24.37-14L171.65,331c-1-.56-1.77-.22-1.77.76l0,14.35a3.68,3.68,0,0,0,1.78,2.8h0c1.49,1.36,3.77,3.68,4.14,5.63.59,3-3.55,4.61-10.89,2.89-1-.57-1.77-.23-1.77.75v3A3.7,3.7,0,0,0,165,364l41.26,23.74C207.22,388.31,208,388,208,387Z"/><path class="cls-4" d="M165.55,327.46l-5.32-3.07-20.15-11.6c-.65-.38-1.18-.16-1.18.5v.41a2.28,2.28,0,0,0,.57,1.35l0,0,.07.08,16.8,18.58.21.23v0h0a4.1,4.1,0,0,0,.71.55l8.28,4.77c1,.56,1.77.22,1.77-.76v-8.28A3.7,3.7,0,0,0,165.55,327.46Z"/><path class="cls-4" d="M347.26,360.53v-3.08c0-.87-.62-1.24-1.45-.93q-12.75,4.19-12.89.6c0-1.1.82-3.07,5.84-8.67a126.14,126.14,0,0,1,21.84-19.33,3.76,3.76,0,0,0,1.81-2.85l0-8.43c0-1-.81-1.33-1.81-.76l-24.83,14.39-25.52,14.78a3.73,3.73,0,0,0-1.8,2.85l0,14.59c0,1,.82,1.34,1.82.76h0c1.52-.37,3.84-.69,4.22.85.6,2.4-3.62,8.88-11.09,15.76a3.75,3.75,0,0,0-1.81,2.85V387c0,1,.81,1.34,1.81.76l42-24.35A3.76,3.76,0,0,0,347.26,360.53Z"/><path class="cls-4" d="M304,349.84,298.59,353l-20.53,11.88a2.53,2.53,0,0,0-1.2,1.9v.43c0,.43.23.68.58.69h.09l17.12-.83.21,0h0a1.91,1.91,0,0,0,.72-.26l8.43-4.88a3.76,3.76,0,0,0,1.81-2.85V350.6C305.82,349.6,305,349.26,304,349.84Z"/><rect class="cls-5" x="233.89" y="37.36" width="67.72" height="123.49"/></svg>