<svg id="no_hover" xmlns="http://www.w3.org/2000/svg" xmlns:xlink="http://www.w3.org/1999/xlink" viewBox="0 0 500 500"><defs><style>.cls-1{fill:url(#New_Pattern);}.cls-2{fill:none;}.cls-3{fill:#de1651;}.cls-4{fill:#2e5644;}.cls-5{fill:#409873;}.cls-6{fill:#52c18e;}.cls-7{fill:#6cd3a0;}.cls-8{fill:#00df9a;}.cls-9{fill:#2d2d2d;}.cls-10{fill:#212121;}.cls-11{fill:#fff;}.cls-12{fill:#959691;}.cls-13{fill:#9d9fa2;}.cls-14{fill:#bc154d;}.cls-15{fill:#e5e5e5;}.cls-16{fill:#fffce1;}.cls-17{mask:url(#mask);}.cls-18{fill:#af0e40;}</style><pattern id="New_Pattern" data-name="New Pattern" width="61.44" height="39.9" patternTransform="matrix(0.42, -0.24, 0, 0.42, 0.14, -215.27)" patternUnits="userSpaceOnUse" viewBox="0 0 61.44 39.9"><rect class="cls-2" width="61.44" height="39.9"/><path class="cls-3" d="M44,38.9l.59-2.21a1.33,1.33,0,0,0-.7-1.54q-8.53-4.74-7.93-7.4c.18-.81,1.08-1.7,5.2-2.68a45,45,0,0,1,17-.62,1.33,1.33,0,0,0,1.64-.95l1.61-6.06a1.34,1.34,0,0,0-1-1.64L42.62,11.06,24.29,6.19a1.34,1.34,0,0,0-1.64.95L19.86,17.63a1.34,1.34,0,0,0,.95,1.64h0c1,.65,2.46,1.84,2.4,3.17-.1,2.08-3.91,4.17-9.76,4.58a1.33,1.33,0,0,0-1.64.95l-.59,2.21a1.33,1.33,0,0,0,.95,1.64l30.18,8A1.34,1.34,0,0,0,44,38.9Z"/><path class="cls-3" d="M19.83,5,15.94,4,1.21,0A.9.9,0,0,0,.11.66L0,1a.9.9,0,0,0,.22.85h0l0,0,10.54,9.79.13.12h0a1.35,1.35,0,0,0,.48.24l6.06,1.61a1.33,1.33,0,0,0,1.64-1l1.62-6A1.34,1.34,0,0,0,19.83,5Z"/></pattern><mask id="mask" x="0" y="13.69" width="277.51" height="145.67" maskUnits="userSpaceOnUse"><polygon class="cls-1" points="277.51 147.81 257.51 159.36 257.51 132.13 277.51 120.59 277.51 147.81"/></mask></defs><path class="cls-4" d="M350.87,333.07q0-50.68.07-101.38L250,290q0,50.58.05,101.16Z"/><path class="cls-5" d="M250,290,149.25,231.7q0,50.63,0,101.25l100.79,58.24Q250,340.61,250,290Z"/><path class="cls-5" d="M250,290V173.61L149.25,231.7Z"/><path class="cls-6" d="M350.94,231.69l43.84-55.79L294,117.78,250,173.61Z"/><path class="cls-6" d="M191.24,289,250,290,149.25,231.7l-57.13,0Z"/><path class="cls-6" d="M149.25,231.7,92.12,198.88,193,140.5l57,33.11Z"/><path class="cls-7" d="M350.94,231.69,250,290V173.61Z"/><path class="cls-3" d="M219.72,336.46v-2.19a2.64,2.64,0,0,0-1-1.85q-9.06-7.5-9.16-10.15c0-.82.58-1.51,4.15-1.37,3.19.12,8.3.88,15.51,4.18.71.41,1.28.17,1.28-.54v-6a2.66,2.66,0,0,0-1.28-2l-17.64-10.15-18.13-10.43c-.7-.41-1.28-.16-1.28.55l0,10.38a2.7,2.7,0,0,0,1.29,2h0c1.08,1,2.72,2.66,3,4.06.42,2.19-2.58,3.34-7.88,2.1-.71-.41-1.29-.17-1.28.54v2.19a2.68,2.68,0,0,0,1.29,2L218.44,337C219.15,337.41,219.72,337.17,219.72,336.46Z"/><path class="cls-3" d="M189,293.39l-3.85-2.21-14.58-8.4c-.47-.28-.85-.11-.85.36v.3a1.61,1.61,0,0,0,.42,1v0l0,.06,12.16,13.44a1.07,1.07,0,0,0,.14.16v0h0a3.2,3.2,0,0,0,.51.4l6,3.45c.71.41,1.29.16,1.29-.55v-6A2.68,2.68,0,0,0,189,293.39Z"/><path class="cls-3" d="M320.46,317.32v-2.23c0-.63-.45-.89-1-.67q-9.23,3-9.33.43c0-.79.59-2.22,4.22-6.27a91.41,91.41,0,0,1,15.8-14,2.68,2.68,0,0,0,1.31-2.06v-6.09c0-.72-.59-1-1.31-.55l-18,10.4L293.66,307a2.71,2.71,0,0,0-1.3,2.06l0,10.56c0,.72.59,1,1.31.55h0c1.09-.27,2.77-.5,3.05.61.43,1.74-2.62,6.43-8,11.4a2.71,2.71,0,0,0-1.3,2.07v2.22c0,.72.59,1,1.31.55l30.41-17.62A2.7,2.7,0,0,0,320.46,317.32Z"/><path class="cls-3" d="M289.17,309.58l-3.92,2.27-14.85,8.6a1.79,1.79,0,0,0-.87,1.37v.31a.44.44,0,0,0,.42.5H270l12.38-.6h.16a1.62,1.62,0,0,0,.52-.2l6.1-3.53a2.71,2.71,0,0,0,1.31-2.06v-6.1C290.48,309.41,289.89,309.17,289.17,309.58Z"/><path class="cls-6" d="M407.88,264.73l-56.94-33L250,290l54,34.51Z"/><path class="cls-6" d="M245.52,287.44l-91.83-53.19-15,8.14,66.06,43.12,36.89,2.95Z"/><polygon class="cls-3" points="289.3 240.07 289.3 238.86 288.25 238.86 287.2 240.07 287.2 241.29 288.25 241.29 289.3 240.07"/><path class="cls-3" d="M175.92,129.41v1.94l66.25,38.16v-2Z"/><path class="cls-8" d="M172.73,127.73l3.19,1.68v1.94Z"/><path class="cls-8" d="M238.93,167.63l3.25,1.88v-2l-3.25-1.81Z"/><polygon class="cls-9" points="242.18 275.79 172.54 235.58 172.54 137.68 242.18 177.88 242.18 275.79"/><path class="cls-10" d="M244,274.43l-1.78,1.36V177.88l-69.64-40.2,1.79-1.36L244,176.53Z"/><polygon class="cls-11" points="236.11 264.7 178.61 231.5 178.61 147 236.11 180.21 236.11 264.7"/><path class="cls-3" d="M211.49,247.25v-.46a.55.55,0,0,0-.21-.39c-1.28-1.05-1.92-1.77-1.93-2.14,0-.17.12-.32.87-.29a8.82,8.82,0,0,1,3.27.88c.15.09.27,0,.27-.11v-1.26a.57.57,0,0,0-.27-.43l-3.71-2.14L206,238.72c-.14-.09-.27,0-.27.11V241a.57.57,0,0,0,.27.43h0a1.92,1.92,0,0,1,.63.85c.09.47-.54.71-1.65.44-.15-.08-.27,0-.27.12v.46a.57.57,0,0,0,.27.43l6.28,3.61C211.37,247.45,211.49,247.4,211.49,247.25Z"/><path class="cls-3" d="M205,238.18l-.82-.47L201.15,236c-.1-.06-.18,0-.18.07v.07a.34.34,0,0,0,.08.2h0v0l2.56,2.83,0,0h0a.31.31,0,0,0,.11.09L205,240c.15.09.27,0,.27-.11v-1.26A.6.6,0,0,0,205,238.18Z"/><path class="cls-3" d="M229.57,192.45a1.48,1.48,0,0,1-.72-.2l-44-25.38a1.44,1.44,0,1,1,1.44-2.49l44,25.38a1.44,1.44,0,0,1-.72,2.69Z"/><path class="cls-3" d="M229.57,199.42a1.46,1.46,0,0,1-.72-.19l-44-25.39a1.44,1.44,0,1,1,1.44-2.49l44,25.39a1.44,1.44,0,0,1,.53,2A1.43,1.43,0,0,1,229.57,199.42Z"/><path class="cls-3" d="M229.57,206.4a1.46,1.46,0,0,1-.72-.19l-44-25.39a1.44,1.44,0,1,1,1.44-2.49l44,25.39a1.44,1.44,0,0,1-.72,2.68Z"/><path class="cls-3" d="M229.57,213.38a1.48,1.48,0,0,1-.72-.2l-44-25.38a1.44,1.44,0,1,1,1.44-2.49l44,25.38a1.44,1.44,0,0,1-.72,2.69Z"/><path class="cls-3" d="M229.57,220.35a1.46,1.46,0,0,1-.72-.19l-44-25.39a1.44,1.44,0,1,1,1.44-2.49l44,25.39a1.44,1.44,0,0,1-.72,2.68Z"/><path class="cls-3" d="M229.57,227.33a1.46,1.46,0,0,1-.72-.19l-44-25.39a1.44,1.44,0,1,1,1.44-2.49l44,25.39a1.44,1.44,0,0,1-.72,2.68Z"/><path class="cls-3" d="M229.57,234.31a1.48,1.48,0,0,1-.72-.2l-44-25.38a1.44,1.44,0,1,1,1.44-2.49l44,25.38a1.44,1.44,0,0,1-.72,2.69Z"/><path class="cls-3" d="M202.5,225.65a1.44,1.44,0,0,1-.72-.19l-16.9-9.76a1.44,1.44,0,1,1,1.44-2.49l16.9,9.76a1.44,1.44,0,0,1-.72,2.68Z"/><path class="cls-12" d="M222.8,175.84a1.65,1.65,0,0,1-.79-.23L192.73,158.7a2.81,2.81,0,0,1-1.37-2.18v-1.89a2.13,2.13,0,0,1,1-1.95,2.78,2.78,0,0,1,2.74.28l25.46,14.7a6.71,6.71,0,0,1,3.27,5.2v1.89a1.06,1.06,0,0,1-.49,1A1,1,0,0,1,222.8,175.84Zm-.36-1c.25.14.39.13.44.11a.29.29,0,0,0,.06-.22v-1.89a6,6,0,0,0-2.84-4.45l-25.46-14.7a1.94,1.94,0,0,0-1.88-.28,1.32,1.32,0,0,0-.53,1.2v1.89a1.93,1.93,0,0,0,.93,1.43Z"/><path class="cls-13" d="M257.13,229.13V195.06l69.95-40.39.37.2-70,40.39v34.07Z"/><polygon class="cls-11" points="257.49 275.67 257.49 241.6 327.44 201.21 327.44 235.28 257.49 275.67"/><path class="cls-14" d="M292.47,221.4l-35,20.2,4.91,3.24,30.07-17.36,30.07-17.36,4.9-8.91Z"/><path class="cls-15" d="M322.54,198l-30.07,17.36L262.4,232.68l-4.91,8.91,35-20.19,35-20.19Z"/><path class="cls-13" d="M327.44,200.79l-4.93-3.42-30.4,17.54L262,232.27l-4.91,8.92h0v34.07l.36.41V241.6q2.44-4.47,4.91-8.92L322.54,198l4.9,3.25Z"/><polygon class="cls-16" points="257.49 229.33 257.49 195.26 327.45 154.87 327.45 188.94 257.49 229.33"/><path class="cls-3" d="M286.79,209.34a.63.63,0,0,1-.32-1.17l37.64-21.73a.62.62,0,0,1,.86.23.63.63,0,0,1-.23.86L287.1,209.26A.58.58,0,0,1,286.79,209.34Z"/><path class="cls-3" d="M286.79,205.19a.63.63,0,0,1-.55-.32.64.64,0,0,1,.23-.86l37.64-21.73a.63.63,0,0,1,.86.23.62.62,0,0,1-.23.86L287.1,205.1A.59.59,0,0,1,286.79,205.19Z"/><path class="cls-3" d="M286.79,201a.65.65,0,0,1-.55-.32.63.63,0,0,1,.23-.86l37.64-21.73a.63.63,0,1,1,.63,1.09L287.1,201A.59.59,0,0,1,286.79,201Z"/><path class="cls-3" d="M270,196.56v-.42c0-.12-.08-.17-.19-.12-1.15.37-1.73.4-1.74.08,0-.15.11-.42.79-1.17a16.77,16.77,0,0,1,2.94-2.61.5.5,0,0,0,.24-.38v-1.13c0-.14-.11-.18-.24-.11l-3.35,1.94-3.44,2a.52.52,0,0,0-.24.39v2c0,.14.11.18.25.1h0c.21-.05.52-.09.57.12s-.49,1.19-1.49,2.12a.5.5,0,0,0-.25.38v.42c0,.13.11.18.25.1l5.66-3.28A.52.52,0,0,0,270,196.56Z"/><path class="cls-3" d="M264.17,195.12l-.73.42-2.77,1.6a.34.34,0,0,0-.16.25v.06c0,.06,0,.09.08.09h0s0,0,0,0l2.31-.11h0a.16.16,0,0,0,.09,0l1.14-.66a.52.52,0,0,0,.24-.39v-1.13C264.41,195.08,264.3,195,264.17,195.12Z"/><polygon class="cls-11" points="257.51 159.36 257.51 132.13 297.51 109.04 297.51 136.26 257.51 159.36"/><path class="cls-13" d="M257.13,159.13V131.9l40-23.09.38.23-40,23.09v27.23Z"/><polygon class="cls-11" points="257.51 190.86 257.51 163.64 297.51 140.55 297.51 167.77 257.51 190.86"/><path class="cls-13" d="M257.13,190.54V163.31l40-23.09.38.33q-20,11.53-40,23.09v27.3Z"/><path class="cls-3" d="M283.42,166v-.67c0-.19-.13-.27-.31-.2-1.86.61-2.8.65-2.82.13,0-.24.18-.67,1.28-1.9a27.83,27.83,0,0,1,4.77-4.22.79.79,0,0,0,.39-.62v-1.84c0-.22-.18-.29-.4-.17l-5.42,3.14-5.57,3.23a.84.84,0,0,0-.4.63v3.18c0,.22.17.3.39.17h0c.33-.08.84-.15.92.18.13.53-.79,1.94-2.42,3.44a.84.84,0,0,0-.4.63v.67c0,.22.18.29.4.16l9.18-5.31A.84.84,0,0,0,283.42,166Z"/><path class="cls-3" d="M274,163.66l-1.19.68-4.48,2.6a.55.55,0,0,0-.26.41v.09a.14.14,0,0,0,.13.16h0l3.73-.19H272a.4.4,0,0,0,.16-.06l1.84-1.06a.84.84,0,0,0,.4-.63v-1.84C274.36,163.61,274.19,163.53,274,163.66Z"/><path class="cls-3" d="M284.4,123.17a.21.21,0,0,1-.18-.11.2.2,0,0,1,.08-.28L295,116.61a.21.21,0,0,1,.29.07.21.21,0,0,1-.08.29l-10.68,6.17A.23.23,0,0,1,284.4,123.17Z"/><path class="cls-3" d="M284.4,128.73a.21.21,0,0,1-.18-.11.2.2,0,0,1,.08-.28L295,122.16a.22.22,0,0,1,.29.08.21.21,0,0,1-.08.29l-10.68,6.17A.23.23,0,0,1,284.4,128.73Z"/><path class="cls-3" d="M284.4,134.29a.21.21,0,0,1-.18-.11.21.21,0,0,1,.08-.29L295,127.72a.22.22,0,0,1,.29.08.21.21,0,0,1-.08.29l-10.68,6.17A.23.23,0,0,1,284.4,134.29Z"/><polygon class="cls-3" points="277.51 147.81 257.51 159.36 257.51 132.13 277.51 120.59 277.51 147.81"/><g class="cls-17"><polygon class="cls-11" points="277.51 147.81 257.51 159.36 257.51 132.13 277.51 120.59 277.51 147.81"/></g><polygon class="cls-3" points="282.23 130.28 282.23 129.26 281.35 129.26 280.47 130.28 280.47 131.29 281.35 131.29 282.23 130.28"/><polygon class="cls-3" points="282.23 135.84 282.23 134.82 281.35 134.82 280.47 135.84 280.47 136.85 281.35 136.85 282.23 135.84"/><path class="cls-11" d="M292.2,135l-4.9,2.83"/><path class="cls-3" d="M287.3,138.16A.33.33,0,0,1,287,138a.32.32,0,0,1,.12-.43l4.9-2.83a.32.32,0,0,1,.43.12.31.31,0,0,1-.12.43l-4.9,2.83A.28.28,0,0,1,287.3,138.16Z"/><path class="cls-6" d="M242.18,167.5v2l1.15-.69v-2Z"/><path class="cls-2" d="M175.93,128.41v-.28c0,.09,0,.18,0,.28Z"/><path class="cls-5" d="M243.33,166.8,240.15,165l-1.21.73,3.24,1.8Z"/><path class="cls-11" d="M238.92,165.69v0h0Z"/><path class="cls-2" d="M175.92,128.41h0v0Z"/><path class="cls-3" d="M175.93,128.13h0v0Z"/><path class="cls-18" d="M238.92,164.27l-62-35.56-1,.7,63,36.28h0l1.21-.73Z"/><path class="cls-11" d="M175.92,128.41h0v0Z"/><path class="cls-5" d="M172.73,127.73l3.19,1.68,1-.7Z"/></svg>