<svg id="Layer_1" data-name="Layer 1" xmlns="http://www.w3.org/2000/svg" viewBox="0 0 500 500"><defs><style>.cls-1{fill:#00df9a;}.cls-2{fill:#fefefe;}.cls-3{fill:#de1651;}</style></defs><rect class="cls-1" x="37.72" y="91.03" width="331.71" height="317.93" rx="18.44"/><rect class="cls-2" x="57.33" y="200.86" width="292.51" height="189.73" rx="10.02"/><path class="cls-3" d="M417.4,74.79c1.38,4.58-.11,8.79-.75,10.53-5.34,14.46-15,36.17-20.69,46.39-6,10.85-12.59,21.42-19.46,31.78-1.38,2.09-2.65,2.54-5.09,1.8a65.68,65.68,0,0,1-34.28-24c-1.15-1.54-1.49-2.67-.27-4.36,15-20.73,30.68-40.95,49.69-58.29,2.82-2.56,8.14-10.06,17.11-11.68,5.18-.94,8,.58,8.76,1A11.79,11.79,0,0,1,417.4,74.79Z"/><path class="cls-3" d="M291.58,254.67a37.75,37.75,0,0,1-15.08-3.77c-3.41-1.65-3.92-4.65-.84-6.72,8.69-5.84,10.72-14,9.55-23.84-1.86-15.6,5.08-28.58,17.72-34.06a37.88,37.88,0,0,1,14.16-3.15c2.51-.07,3.42-1,3.36-3.57-.21-9.31,2.27-18,6.54-26.22,1.1-2.13,1.84-2.35,3.35-.36a62.45,62.45,0,0,0,32.83,22.8c2.75.82,2.35,1.8.69,3.47a65.58,65.58,0,0,1-23.31,15.57c-1.32.5-2.63.77-1.57,2.75,4.52,8.43,3.68,17,.14,25.45C331.59,241.07,311.49,254.85,291.58,254.67Z"/><rect class="cls-3" x="57.33" y="105.5" width="42.37" height="28.25" rx="8.01"/><rect class="cls-3" x="110.22" y="105.5" width="42.37" height="28.25" rx="8.01"/><rect class="cls-3" x="163.12" y="105.5" width="42.37" height="28.25" rx="8.01"/><path class="cls-3" d="M105.89,257.36H251.72a11.83,11.83,0,1,0,0-23.65H105.89a11.83,11.83,0,1,0,0,23.65Z"/></svg>