<svg id="no_hover" xmlns="http://www.w3.org/2000/svg" viewBox="0 0 500 500"><defs><style>.cls-1{fill:#52c18e;}.cls-2{fill:#2e5644;}.cls-3{fill:#409873;}.cls-4{fill:#44966d;}.cls-5{fill:#6cd3a0;}.cls-6{fill:#68dd9f;}.cls-7{fill:#fefefe;}.cls-10,.cls-8{fill:#1ea55e;}.cls-9{fill:#6c9;}.cls-10{opacity:0.45;}.cls-11{fill:#28af65;}.cls-12{fill:#23c172;}.cls-13{fill:#25af66;}</style></defs><path class="cls-1" d="M378.54,367.25v6l-61,35.19-81.27-46.91V355.7L286,325Z"/><path class="cls-1" d="M404,376l0-152.36L190.63,100.35V252.84Z"/><path class="cls-2" d="M419.19,367.2V214.72l-15.27,8.92L404,376Z"/><path class="cls-3" d="M419.19,214.72,205.87,91.56l-15.24,8.79L403.92,223.64Z"/><path d="M393.79,358.46l.08-129.18L200.75,118l.06,129Z"/><path class="cls-4" d="M317.6,402.74l60.94-35.49-83.2-47.82-59,36.27Z"/><path class="cls-1" d="M317.53,373.22l-30.46-17.73q0-23.48.05-46.94l30.42,17.66Z"/><path class="cls-5" d="M317.54,326.21l10.18,6q.11,17.58.19,35.16l-10.38,5.88Z"/><path class="cls-6" d="M219.68,294.69l-5.39,3.13-4-2.13-3.42,3.3-11.49-6.64,2-3.5-4-2.35v-7.81l3.42-1.95,2.23-5.21L196,270.1l3.65-7.14,3.79-.26,2-2,2-5.08,4.75-2.73,3.37,2,4.05-3.14,11.49,6.65-2,3.51,4.73,2.74v6.22L229.82,274l-1.36,3.91,2,2.72-2.71,6.26-4.68.35-2.76,2.37Z"/><path class="cls-7" d="M220.68,267.85a3,3,0,0,1,1.62.44c1.21.79,1.36,2.4,1.49,3.19a14.43,14.43,0,0,1-6.19,13.79,8,8,0,0,1-4.26,1.22c-2.36,0-3.23-2.14-3.5-3.8-.9-5.48,3.95-11.62,6.57-13.45a7.39,7.39,0,0,1,3.92-1.4Zm.55-3.23a10.19,10.19,0,0,0-5.54,1.89c-5.58,3.7-9.19,12.08-8.2,18.09.64,3.93,2.36,5.13,5.56,5.13a10.19,10.19,0,0,0,5.55-1.9c5.57-3.69,9.35-11.71,8.36-17.72C226.32,266.18,224.44,264.62,221.23,264.62Z"/><ellipse class="cls-7" cx="217.22" cy="277.89" rx="4.55" ry="3.04" transform="translate(-134.6 303.01) rotate(-56.07)"/><path class="cls-8" d="M226.45,255.67l-3.41,3.5-7.41-4.28,4.05-3.14Z"/><path class="cls-8" d="M233.88,264.65h-4.07l-1.34-1.58.68-1.17Z"/><path class="cls-8" d="M214.29,297.82l-1.83-4-2.4,1.87Z"/><path class="cls-9" d="M203.47,280.65l-6.73-3.91-3.42,1.95,6.75,3.93Z"/><path class="cls-10" d="M203.47,280.65l2-4.29L202.81,274l-4.08-2.36-2.07,5.05Z"/><path class="cls-11" d="M202.81,274l3.38-6.62L199.67,263,196,270.1Z"/><path class="cls-8" d="M210.21,266.57l2.7-1.49,1.35-4.73-6.75-4.69-2,5.08-2,2Z"/><path class="cls-12" d="M214.26,260.35l5.42-3.12-7.42-4.3-4.75,2.73Z"/><path class="cls-12" d="M200.05,290.42l0-7.8-6.75-3.93v7.81Z"/><path class="cls-13" d="M200.05,290.42l-2.72-1.59-2,3.52,6,3.47c1.15-1.41,2.29-2.83,3.44-4.25l0-1.88Z"/><path class="cls-6" d="M251.87,387.52l-4.94,2.87-3.68-2-3.13,3-10.51-6.07,1.84-3.2L227.76,380v-7.14l3.12-1.79,2-4.76L230.23,365l3.34-6.54,3.46-.24,1.86-1.79,1.85-4.64,4.34-2.51,3.08,1.8,3.71-2.87,10.51,6.08-1.85,3.21,4.33,2.5v5.7l-3.71,2.87-1.25,3.57,1.88,2.49-2.49,5.72-4.27.33-2.53,2.17Z"/><path class="cls-7" d="M252.78,363a2.66,2.66,0,0,1,1.48.4c1.11.72,1.25,2.19,1.37,2.91A13.25,13.25,0,0,1,250,378.91a7.38,7.38,0,0,1-3.9,1.11c-2.16,0-3-2-3.21-3.48-.82-5,3.62-10.63,6-12.3a6.75,6.75,0,0,1,3.6-1.29Zm.51-3a9.34,9.34,0,0,0-5.07,1.73c-5.11,3.39-8.41,11.05-7.51,16.55.59,3.6,2.16,4.69,5.09,4.69a9.37,9.37,0,0,0,5.08-1.73c5.1-3.38,8.55-10.72,7.65-16.22C257.94,361.43,256.22,360,253.29,360Z"/><ellipse class="cls-7" cx="249.62" cy="372.15" rx="4.16" ry="2.78" transform="translate(-198.49 371.54) rotate(-56.07)"/><path class="cls-8" d="M258.06,351.82,254.94,355l-6.78-3.92,3.71-2.87Z"/><path class="cls-8" d="M264.86,360l-3.72,0-1.23-1.44.62-1.08Z"/><path class="cls-8" d="M246.93,390.39l-1.67-3.68-2.19,1.71Z"/><path class="cls-9" d="M237,374.68l-6.16-3.58-3.12,1.79,6.17,3.59Z"/><path class="cls-10" d="M237,374.68l1.85-3.93-2.46-2.13-3.73-2.16-1.89,4.62Z"/><path class="cls-11" d="M236.43,368.62l3.1-6.05-6-4.08L230.23,365Z"/><path class="cls-8" d="M243.21,361.8l2.47-1.37,1.23-4.33-6.17-4.28-1.85,4.64L237,358.25Z"/><path class="cls-12" d="M246.91,356.1l5-2.85-6.79-3.94-4.34,2.51Z"/><path class="cls-12" d="M233.91,383.61l0-7.13-6.17-3.59V380Z"/><path class="cls-13" d="M233.91,383.61l-2.49-1.45-1.81,3.22,5.51,3.18,3.15-3.9v-1.72Z"/><path class="cls-6" d="M157.6,389.47l-4.94,2.86L149,390.38l-3.13,3-10.51-6.07,1.84-3.2-3.7-2.16v-7.14l3.13-1.78,2-4.77L136,367l3.34-6.53,3.47-.24,1.85-1.79,1.85-4.64,4.34-2.51,3.09,1.8,3.71-2.87,10.51,6.08-1.86,3.21,4.33,2.5v5.7l-3.71,2.86-1.24,3.58,1.87,2.48L165,382.33l-4.27.32-2.53,2.17Z"/><path class="cls-7" d="M158.51,364.92a2.6,2.6,0,0,1,1.48.4c1.11.72,1.24,2.19,1.36,2.91a13.2,13.2,0,0,1-5.66,12.62,7.37,7.37,0,0,1-3.9,1.12c-2.16,0-2.95-2-3.2-3.48-.82-5,3.61-10.63,6-12.3a6.73,6.73,0,0,1,3.59-1.29Zm.51-3a9.37,9.37,0,0,0-5.08,1.73c-5.1,3.38-8.4,11.05-7.5,16.55.59,3.59,2.16,4.69,5.09,4.69a9.34,9.34,0,0,0,5.07-1.73c5.11-3.39,8.56-10.72,7.66-16.22C163.67,363.38,162,362,159,362Z"/><ellipse class="cls-7" cx="155.35" cy="374.1" rx="4.16" ry="2.78" transform="translate(-241.76 294.18) rotate(-56.07)"/><path class="cls-8" d="M163.78,353.77l-3.11,3.2-6.78-3.91,3.71-2.87Z"/><path class="cls-8" d="M170.58,362h-3.72l-1.23-1.44.62-1.07Z"/><path class="cls-8" d="M152.66,392.33,151,388.66l-2.2,1.71Z"/><path class="cls-9" d="M142.76,376.62l-6.15-3.57-3.13,1.78,6.17,3.59Z"/><path class="cls-10" d="M142.76,376.62l1.85-3.92-2.45-2.13-3.73-2.16-1.9,4.62Z"/><path class="cls-11" d="M142.16,370.57l3.09-6.06-6-4.07L136,367Z"/><path class="cls-8" d="M148.93,363.75l2.47-1.37,1.24-4.33-6.18-4.28-1.85,4.64-1.85,1.79Z"/><path class="cls-12" d="M152.64,358.05l5-2.85-6.8-3.94-4.34,2.51Z"/><path class="cls-12" d="M139.64,385.56v-7.14l-6.17-3.59V382Z"/><path class="cls-13" d="M139.64,385.56l-2.49-1.45-1.81,3.22,5.5,3.18,3.15-3.9,0-1.72Z"/><path class="cls-6" d="M203.47,339.35l-3.15,1.83L198,339.93l-2,1.93L189.24,338l1.18-2.05-2.36-1.37V330l2-1.14,1.31-3-1.73-.84,2.14-4.18,2.22-.16,1.18-1.14,1.19-3,2.77-1.6,2,1.15,2.37-1.84,6.73,3.89L209,320.17l2.77,1.61v3.64l-2.37,1.83-.8,2.28,1.2,1.59-1.59,3.67-2.73.2-1.62,1.39Z"/><path class="cls-7" d="M204.06,323.65a1.74,1.74,0,0,1,.94.26,2.51,2.51,0,0,1,.87,1.86,8.44,8.44,0,0,1-3.61,8.07,4.72,4.72,0,0,1-2.5.71c-1.38,0-1.89-1.25-2-2.22-.52-3.21,2.31-6.79,3.85-7.87a4.32,4.32,0,0,1,2.29-.82Zm.32-1.89a6,6,0,0,0-3.24,1.11c-3.27,2.16-5.38,7.06-4.8,10.58.38,2.3,1.38,3,3.25,3a6,6,0,0,0,3.25-1.11c3.26-2.16,5.47-6.85,4.89-10.37C207.36,322.67,206.26,321.76,204.38,321.76Z"/><ellipse class="cls-7" cx="202.03" cy="329.52" rx="2.66" ry="1.78" transform="translate(-184.15 313.22) rotate(-56.07)"/><path class="cls-8" d="M207.43,316.52l-2,2.05-4.34-2.5,2.37-1.84Z"/><path class="cls-8" d="M211.78,321.78H209.4l-.79-.92.4-.69Z"/><path class="cls-8" d="M200.32,341.18l-1.07-2.35-1.41,1.1Z"/><path class="cls-9" d="M194,331.14l-3.94-2.29-2,1.14,3.94,2.3Z"/><path class="cls-10" d="M194,331.14l1.18-2.51-1.57-1.37-2.38-1.38-1.21,3Z"/><path class="cls-11" d="M193.6,327.26l2-3.87-3.81-2.6L189.63,325Z"/><path class="cls-8" d="M197.94,322.9l1.57-.87.79-2.77-3.94-2.74-1.19,3L194,320.63Z"/><path class="cls-12" d="M200.3,319.26l3.17-1.82-4.34-2.52-2.77,1.6Z"/><path class="cls-12" d="M192,336.85v-4.56l-3.94-2.3v4.57Z"/><path class="cls-13" d="M192,336.85l-1.59-.93L189.24,338l3.52,2,2-2.49v-1.1Z"/><path class="cls-6" d="M164,303.61l-6.72,3.9-5-2.66L148,309l-14.29-8.25,2.51-4.35-5-2.93v-9.71l4.25-2.42,2.77-6.48L134.58,273l4.54-8.89,4.71-.32,2.52-2.43,2.52-6.32,5.9-3.41,4.19,2.45,5-3.91,14.29,8.28-2.53,4.35,5.89,3.41V274l-5,3.89-1.69,4.86,2.54,3.38c-1.12,2.6-2.25,5.19-3.37,7.79l-5.81.44q-1.72,1.47-3.44,2.95Z"/><path class="cls-7" d="M165.24,270.23a3.72,3.72,0,0,1,2,.55c1.5,1,1.69,3,1.85,4a18,18,0,0,1-7.7,17.16,10,10,0,0,1-5.29,1.51c-2.94,0-4-2.66-4.36-4.72-1.12-6.82,4.91-14.45,8.17-16.73a9.12,9.12,0,0,1,4.88-1.75Zm.69-4a12.67,12.67,0,0,0-6.89,2.36c-6.94,4.59-11.43,15-10.2,22.49.8,4.89,2.93,6.38,6.92,6.38a12.61,12.61,0,0,0,6.89-2.36c6.94-4.6,11.64-14.57,10.41-22.05C172.26,268.15,169.92,266.21,165.93,266.21Z"/><ellipse class="cls-7" cx="160.94" cy="282.71" rx="5.66" ry="3.78" transform="translate(-163.46 258.45) rotate(-56.07)"/><path class="cls-8" d="M172.42,255.07l-4.24,4.36L159,254.11l5-3.91Z"/><path class="cls-8" d="M181.66,266.24l-5.06,0-1.67-2,.84-1.47Z"/><path class="cls-8" d="M157.29,307.51l-2.27-5-3,2.33Z"/><path class="cls-9" d="M143.84,286.15l-8.37-4.86-4.25,2.42,8.39,4.88Z"/><path class="cls-10" d="M143.84,286.15l2.51-5.34-3.34-2.9L138,275l-2.58,6.28Z"/><path class="cls-11" d="M143,277.91l4.21-8.23-8.1-5.54L134.58,273Z"/><path class="cls-8" d="M152.23,268.64l3.35-1.86,1.69-5.89-8.4-5.82-2.52,6.32-2.52,2.43Z"/><path class="cls-12" d="M157.27,260.89,164,257l-9.23-5.36-5.9,3.41Z"/><path class="cls-12" d="M139.59,298.3l0-9.71-8.39-4.88v9.71Z"/><path class="cls-13" d="M139.59,298.3l-3.39-2-2.46,4.38,7.48,4.32,4.29-5.29,0-2.34Z"/><path class="cls-6" d="M99,266.26l-3.73,2.16L92.52,267l-2.37,2.28-7.94-4.59,1.39-2.42-2.79-1.63V255.2l2.36-1.35,1.54-3.6-2-1,2.53-4.94,2.62-.19,1.4-1.34,1.4-3.52,3.28-1.89,2.33,1.36,2.8-2.17,8,4.6-1.41,2.42,3.28,1.89v4.31L106,252l-.94,2.71,1.42,1.87-1.88,4.33-3.23.25-1.91,1.64Z"/><path class="cls-7" d="M99.72,247.7a2,2,0,0,1,1.12.31,3,3,0,0,1,1,2.2,10,10,0,0,1-4.28,9.54,5.59,5.59,0,0,1-2.94.84c-1.64,0-2.24-1.48-2.43-2.63-.62-3.79,2.73-8,4.55-9.3a5.14,5.14,0,0,1,2.71-1Zm.38-2.23a7,7,0,0,0-3.83,1.31c-3.86,2.55-6.35,8.34-5.67,12.5.44,2.72,1.63,3.55,3.85,3.55a7.12,7.12,0,0,0,3.83-1.31c3.86-2.56,6.47-8.1,5.79-12.26C103.62,246.54,102.32,245.47,100.1,245.47Z"/><ellipse class="cls-7" cx="97.33" cy="254.64" rx="3.14" ry="2.1" transform="translate(-168.28 193.26) rotate(-56.07)"/><path class="cls-8" d="M103.71,239.27l-2.36,2.43-5.12-3,2.8-2.17Z"/><path class="cls-8" d="M108.85,245.48H106l-.93-1.09.46-.81Z"/><path class="cls-8" d="M95.3,268.42,94,265.65l-1.66,1.29Z"/><path class="cls-9" d="M87.82,256.55l-4.65-2.7-2.36,1.35,4.66,2.71Z"/><path class="cls-10" d="M87.82,256.55l1.4-3L87.36,252l-2.82-1.63-1.43,3.49Z"/><path class="cls-11" d="M87.36,252l2.34-4.57-4.5-3.08-2.53,4.94Z"/><path class="cls-8" d="M92.48,246.82l1.87-1,.93-3.27-4.66-3.24-1.4,3.52-1.4,1.34Z"/><path class="cls-12" d="M95.28,242.51,99,240.36l-5.13-3-3.28,1.89Z"/><path class="cls-12" d="M85.46,263.3v-5.39l-4.66-2.71v5.39Z"/><path class="cls-13" d="M85.46,263.3l-1.89-1.09-1.36,2.43,4.16,2.4,2.38-2.94v-1.3Z"/></svg>