<svg id="hover" xmlns="http://www.w3.org/2000/svg" viewBox="0 0 500 500"><defs><style>.cls-1{fill:#ffdcd1;}.cls-2{fill:#00df9a;}.cls-3{fill:#fff;}.cls-4{fill:#de1651;}.cls-5{fill:#f7f5f5;}</style></defs><path class="cls-1" d="M311.83,319.18c-2.63-2.18-20.24-17.24-20.29-41.47-.05-21.34,13.56-41.24,34.54-50.37l-21.85-47c-1.45-2-3.07-5-2.71-8.35.83-7.87,11.88-13.35,18-13.61,20.64-.87,37.18,56.1,38,59.1-5.36,21.67-11,58.09-.78,100.35a204.07,204.07,0,0,0,14.92,41.39L305,403.44a172.77,172.77,0,0,0-28.59-41.06c-14.31-15.19-24.51-20.33-45.49-38.37a423.23,423.23,0,0,1-37.21-36.23Z"/><rect class="cls-2" x="168.14" y="130.55" width="229.83" height="137.54" rx="20" transform="translate(17.27 421.14) rotate(-75)"/><rect class="cls-3" x="182.45" y="144.54" width="201.21" height="109.55" rx="16" transform="translate(17.27 421.14) rotate(-75)"/><path class="cls-4" d="M296.35,218.27l.59-2.21a1.34,1.34,0,0,0-.7-1.55q-8.53-4.72-7.93-7.39c.18-.81,1.08-1.7,5.2-2.68a45,45,0,0,1,17-.62,1.34,1.34,0,0,0,1.64-.95l1.61-6.06a1.33,1.33,0,0,0-1-1.64L295,190.43l-18.32-4.87a1.33,1.33,0,0,0-1.64.95L272.2,197a1.34,1.34,0,0,0,.95,1.64h0c1,.65,2.46,1.83,2.4,3.17-.1,2.08-3.91,4.17-9.76,4.58a1.34,1.34,0,0,0-1.65.95l-.58,2.21a1.33,1.33,0,0,0,.95,1.64l30.18,8A1.33,1.33,0,0,0,296.35,218.27Z"/><path class="cls-4" d="M272.17,184.36l-3.89-1-14.73-3.93a.9.9,0,0,0-1.1.63l-.08.31a.9.9,0,0,0,.22.85h0l.05,0L263.19,191l.13.12h0a1.23,1.23,0,0,0,.48.25l6.06,1.61a1.34,1.34,0,0,0,1.64-.95l1.61-6.05A1.34,1.34,0,0,0,272.17,184.36Z"/><path class="cls-1" d="M318.49,318.91a89.76,89.76,0,0,1,29.2-103.09l11.88-41.93q4.65-14.62,9.32-29.24c6.71-2.06,11-1.16,13.67.19,13.15,6.55,15.12,36.22,4.44,74.28a152.77,152.77,0,0,0,9,174.79c-12.87-1.78-23.64-.35-32.66,2.86-12,4.26-16,9.9-26.64,12.13-8.77,1.84-19.22.77-31.68-5.46Z"/><ellipse class="cls-1" cx="214.95" cy="212.86" rx="11.84" ry="24.47" transform="translate(-53.62 352.09) rotate(-72.12)"/><ellipse class="cls-1" cx="220.9" cy="189.19" rx="15.16" ry="31.33" transform="translate(-26.97 341.34) rotate(-72.12)"/><ellipse class="cls-1" cx="227.16" cy="159.86" rx="15.16" ry="31.33" transform="matrix(0.31, -0.95, 0.95, 0.31, 5.28, 326.98)"/><ellipse class="cls-1" cx="231.51" cy="131.77" rx="15.16" ry="31.33" transform="translate(35.04 311.65) rotate(-72.12)"/><path class="cls-5" d="M393.85,183.2a24.76,24.76,0,0,1-11.68-7c-7.21-7.9-8.36-20.64-3.19-32.55a16.89,16.89,0,0,1,7,3.59c3.6,3.14,4.75,7.07,6,11.35A52,52,0,0,1,393.76,171,100.79,100.79,0,0,1,393.85,183.2Z"/></svg>