<svg id="no_hover" xmlns="http://www.w3.org/2000/svg" viewBox="0 0 500 500"><defs><style>.cls-1{fill:#ffdcd1;}.cls-2{fill:#00df9a;}.cls-3{fill:#212121;}.cls-4{fill:#af0e40;}.cls-5{fill:#f7f5f5;}</style></defs><path class="cls-1" d="M285.67,321.16c-3.17-1.27-24.56-10.19-32-33.24-6.6-20.3.24-43.42,17.41-58.54l-35.21-38c-2-1.44-4.45-3.79-5.15-7.12-1.62-7.75,7.22-16.35,12.93-18.47,19.37-7.17,52.6,42,54.33,44.58,1.55,22.26,7.37,58.66,30.06,95.73a204.39,204.39,0,0,0,26.9,34.82l-49.84,62.5c-19-5.75-46.83-14.77-79.91-27.69-46.83-18.3-72.09-28.16-71.21-36.4C154.74,331.82,177.66,323.21,285.67,321.16Z"/><rect class="cls-2" x="131.26" y="130.29" width="137.54" height="229.83" rx="20" transform="translate(-56.65 60.13) rotate(-15)"/><rect class="cls-3" x="145.26" y="144.6" width="109.55" height="201.21" rx="16" transform="translate(-56.65 60.13) rotate(-15)"/><path class="cls-4" d="M223.11,252l-.59-2.21a1.35,1.35,0,0,0-1.38-1c-6.51.12-10-.7-10.57-2.43-.25-.8.09-2,3.17-4.93a45,45,0,0,1,14.38-9,1.34,1.34,0,0,0,.95-1.64l-1.63-6a1.35,1.35,0,0,0-1.65-1L208,228.63l-18.3,4.94a1.35,1.35,0,0,0-1,1.65l2.83,10.47a1.34,1.34,0,0,0,1.65.95h0c1.18.07,3,.36,3.66,1.55,1,1.85-1.3,5.56-6.17,8.84a1.34,1.34,0,0,0-.94,1.65l.59,2.2a1.35,1.35,0,0,0,1.65.95l30.15-8.14A1.34,1.34,0,0,0,223.11,252Z"/><path class="cls-4" d="M185.22,234.77l-3.89,1-14.72,4a.89.89,0,0,0-.63,1.1l.08.3a.88.88,0,0,0,.62.63h0l.06,0,14,3.2.17,0h0a1.24,1.24,0,0,0,.54,0l6.05-1.63a1.35,1.35,0,0,0,.95-1.65l-1.63-6A1.34,1.34,0,0,0,185.22,234.77Z"/><path class="cls-1" d="M293.72,323.79a71.58,71.58,0,0,1-27.43-31.91c-12.24-28.58-.47-54.94,1.58-59.34L256,190.61l-7.38-29.79c4.63-5.27,8.72-6.73,11.73-7,14.64-1.31,31.87,22.93,42.73,60.93a243.2,243.2,0,0,0,95.33,168.05,57.73,57.73,0,0,1-20.11,10.62c-16.09,4.65-25.76-.69-44.31,1.38a87.39,87.39,0,0,0-28.93,8.65Z"/><ellipse class="cls-1" cx="164.15" cy="332.56" rx="24.47" ry="11.84"/><ellipse class="cls-1" cx="156" cy="308.92" rx="31.33" ry="15.16"/><ellipse class="cls-1" cx="150.29" cy="284.27" rx="31.33" ry="15.16"/><ellipse class="cls-1" cx="144.03" cy="257.99" rx="31.33" ry="15.16"/><path class="cls-5" d="M290.38,181.66a23.54,23.54,0,0,1-13.39-.8c-9.67-3.68-16.19-14.35-16.64-27.05a14.53,14.53,0,0,1,2.88.07,16,16,0,0,1,4.86,1.46c4.73,2.25,9,6.71,10.09,7.95a81.21,81.21,0,0,1,6.49,8.51A92.13,92.13,0,0,1,290.38,181.66Z"/></svg>